<?xml version="1.0" encoding="utf-8"?><svg width="772" height="2956" viewBox="0 0 772 2956" xmlns="http://www.w3.org/2000/svg" xmlns:xlink="http://www.w3.org/1999/xlink"><svg viewBox="-2 -2 41 40" width="41" height="40" id="ar-schedule"><title>schedule</title><g data-name="Layer 1"><path d="M10.69 9.92a1.61 1.61 0 0 1-1.6-1.6V1.6a1.61 1.61 0 0 1 1.6-1.6 1.61 1.61 0 0 1 1.6 1.6v6.71a1.61 1.61 0 0 1-1.6 1.61zM26 9.92a1.61 1.61 0 0 1-1.6-1.6V1.6A1.61 1.61 0 0 1 26 0a1.61 1.61 0 0 1 1.6 1.6v6.71A1.61 1.61 0 0 1 26 9.92z" fill="#7d7c7a"/><path d="M33.57 3.34h-4.21v3.71h2.4a.59.59 0 0 1 .59.59v4.72a.59.59 0 0 1-.59.59h-27a.59.59 0 0 1-.59-.59V7.64a.59.59 0 0 1 .59-.59h2.4V3.34H2.94A3 3 0 0 0 0 6.28v27a3 3 0 0 0 2.94 2.94h30.63a3 3 0 0 0 2.94-2.94v-27a3 3 0 0 0-2.94-2.94z" fill="#adacaa"/><path fill="#9e9d9b" d="M14.02 3.34h8.47v3.72h-8.47z"/><rect x="4.33" y="16.7" width="27.96" height="16.06" rx="1" ry="1" fill="#42413d"/><path d="M16.42 28.87a1.26 1.26 0 0 0 1.76 0l6.74-6.29a1.26 1.26 0 1 0-1.72-1.85l-5.84 5.45-2.61-2.67A1.26 1.26 0 0 0 13 25.32z" fill="#ffdb00"/></g></svg><svg viewBox="-2 -2 41 34" width="41" height="34" id="ar-ship" y="40"><title>ship</title><g data-name="Layer 1" fill="none"><rect x="1.3" y="7.52" width="34.25" height="21.66" rx="1.3" ry="1.3" stroke="#adacaa" stroke-linecap="round" stroke-linejoin="round" stroke-width="2.594"/><path d="M29.22 12.29c-5.37-.25-9-3-10.8-6.39C26.2 8.44 31.3 6.08 30.48 3 29.57-.38 23-.61 18.42 5.9 13.8-.61 7.28-.38 6.37 3c-.82 3.08 4.27 5.44 12.05 2.9C16.63 9.32 13 12 7.63 12.29" stroke="#ffdb00" stroke-linecap="round" stroke-linejoin="round" stroke-width="1.352"/><path stroke="#ffdb00" stroke-width="1.352" d="M18.42 6.94v21.22"/></g></svg><svg viewBox="-2 -2 48 44" width="48" height="44" id="ar-shop" y="74"><title>Asset 1</title><g data-name="Layer 1"><path d="M13.59 10.56l-2.14 21.66a.83.83 0 0 1-.67.77 20.92 20.92 0 0 1-4 .35 20.92 20.92 0 0 1-4-.35.83.83 0 0 1-.67-.77L0 10.56a.83.83 0 0 1 .71-.88 49.62 49.62 0 0 1 6.09-.39 49.62 49.62 0 0 1 6.09.39.83.83 0 0 1 .7.88z" fill="#adacaa"/><path d="M10.75 39.61v-4.8a21.06 21.06 0 0 1-4 .35 21.06 21.06 0 0 1-4-.35v4.8a12 12 0 0 0 4 .56 12 12 0 0 0 4-.56z" fill="#7d7c7a"/><path d="M39.73 6.79h-2.05a4.47 4.47 0 0 0-4.46 4.46v27.23a1.07 1.07 0 0 0 .71 1 14.5 14.5 0 0 0 4.76.67 14.5 14.5 0 0 0 4.76-.67 1.07 1.07 0 0 0 .71-1V11.25a4.47 4.47 0 0 0-4.43-4.46z" fill="#adacaa"/><path fill="#9e9d9b" d="M36.21 4.73h4.99v2.75h-4.99z"/><path fill="#7d7c7a" d="M37.18 0h3.06v3.32h-3.06z"/><circle cx="38.71" cy="1.66" r=".57" fill="#42413d"/><path d="M24.5 16c.16 0 .27 0 .32.06a.57.57 0 0 1 .05.28 8.23 8.23 0 0 0 .46 2.92 2.11 2.11 0 0 0 1 1c.32.17.81.3 1.41.61 1.22.64 1.37 1 1.37 3v14.56c0 1.09.28 1.83-1.57 1.83H17.21c-1.86 0-1.57-.73-1.57-1.83V23.78c0-2 .16-2.33 1.37-3 .6-.31 1.09-.44 1.41-.61a2.11 2.11 0 0 0 1-1 8.22 8.22 0 0 0 .46-2.92A.57.57 0 0 1 20 16a.49.49 0 0 1 .32-.06z" fill="#adacaa"/><path d="M23.22 14h1.19c.19 0 .68 0 .68-.45s-.35-.31-.35-.46.33 0 .33-.66-.35-.54-.35-.7.22 0 .22-.19-.16-.12-.17-.25.19 0 .19-.21-.07-.07-.08-.16.13-.12.13-.12v-.58a.25.25 0 0 0-.26-.21H20a.25.25 0 0 0-.26.21v.58s.14 0 .13.12-.08 0-.08.16.19 0 .19.21-.17.05-.17.25.22 0 .22.19-.35.17-.35.7.33.51.33.66-.35.13-.35.46.52.43.68.45 1.19 0 1.19 0z" fill="#7d7c7a"/><path d="M16.81 24v13a.54.54 0 0 1 .54.54h10a.54.54 0 0 1 .54-.54V24a.54.54 0 0 1-.54-.54h-10a.54.54 0 0 1-.54.54z" fill="#42413d"/><path d="M22.37 32.13c.49-.71 1.14-.88 1.77-1.46a1.17 1.17 0 0 0 0-1.86 1.13 1.13 0 0 0-1.78.75 1.13 1.13 0 0 0-1.78-.75 1.17 1.17 0 0 0 0 1.86c.65.58 1.31.75 1.79 1.46z" fill="#ffdd30"/></g></svg><svg width="14" height="21" viewBox="-2 -2 14 21" id="arrow-left" y="118"><title>1467862029_icon-ios7-arrow-right</title><path d="M10 16.02L8.922 17 0 8.923 8.922.846 10 1.82 2.16 8.923z" fill="#FFF" fill-rule="evenodd"/></svg><svg width="14" height="21" viewBox="-2 -2 14 21" id="arrow-right" y="139"><title>1467862029_icon-ios7-arrow-right</title><path d="M0 .98L1.078 0 10 8.077l-8.922 8.077L0 15.18l7.84-7.103z" fill="#FFF" fill-rule="evenodd"/></svg><svg width="772" height="91" viewBox="-2 -2 772 91" id="bar" y="160"><title>bar</title><path d="M639.71 34.76c-1.75-1.21-11.58-1.29-14.23.07-.53 1.44-4.31 8.78-3.63 14.83.6 5.3 5.16 7.22 8.69 7.77a1.15 1.15 0 0 0 .69.7 1.19 1.19 0 0 0 .28.63 41.73 41.73 0 0 1-.14 14h.08a.67.67 0 0 0-.49.66 1.16 1.16 0 0 0-.76.84 6.8 6.8 0 0 0-1.12.68c-.62.2-2.66.54-3.21.83s-.93.82.65 1.33c2.86.91 10.2.57 12.75-.2 1.39-.42 1.46-1 .17-1.48a17.14 17.14 0 0 0-2.16-.47 6.22 6.22 0 0 0-1.58-.72 1.09 1.09 0 0 0-.69-.81.65.65 0 0 0-.51-.66c-.79-2.88-1-8.86-.35-13.79a1.14 1.14 0 0 0 .43-.75 1.08 1.08 0 0 0 .78-.81c3.49-.61 7.85-2.57 8.51-7.64.79-6.12-3.03-12.97-4.16-15.01z" fill="#53524e"/><path d="M688.92 9zm-9-1.29zm-.07.18zm8.15 3.38l.14-.11a.88.88 0 0 0 .32-1 8 8 0 0 1-.23-.85h.05a.62.62 0 0 0 .28.08H688.85a.73.73 0 0 0 .14-.09.62.62 0 0 0 .1-.31V8.3a1.14 1.14 0 0 0 0-.27.41.41 0 0 1 0-.06 1.38 1.38 0 0 0-.15-.29v-.07l-.06-.06h.12a.18.18 0 0 0 .1-.06.2.2 0 0 0-.1-.38l-.09-.11a.18.18 0 0 0 .11-.06.14.14 0 0 0 0-.12.18.18 0 0 0-.02-.14l-.18-.13a.18.18 0 0 0 .18-.07.16.16 0 0 0 0-.12.16.16 0 0 0 0-.12l-.17-.14a.17.17 0 0 0 .1-.1.16.16 0 0 0 0-.13.15.15 0 0 0-.06-.11l-.17-.13a.15.15 0 0 0 .13-.07.17.17 0 0 0-.07-.17l-.17-.14a.21.21 0 0 0 .11-.06.16.16 0 0 0-.06-.17l-.17-.13a.18.18 0 0 0 .11-.06.16.16 0 0 0-.07-.17l-.17-.14a.16.16 0 0 0 .11-.06.16.16 0 0 0 .2-.46l-.15-.12.07-.05a.18.18 0 0 0-.07-.17h-.06l-.07-.14-.09-.14-.12-.38-.16-.14-.14-.09a1.29 1.29 0 0 0-.32-.15 1.23 1.23 0 0 0-.71-.23h-5.12a1.19 1.19 0 0 0-.7.23 1.55 1.55 0 0 0-.33.15l-.13.09-.09.14-.11.13-.09.14-.08.14h-.06a.17.17 0 0 0-.06.17.14.14 0 0 0 .06.05L680 4a.19.19 0 0 0-.06.17.15.15 0 0 0 .11.06l-.17.14a.17.17 0 0 0-.07.17.2.2 0 0 0 .11.06l-.17.13a.17.17 0 0 0-.06.17.22.22 0 0 0 .11.06l-.17.14a.17.17 0 0 0-.06.17.19.19 0 0 0 .15.07l-.18.13a.19.19 0 0 0-.06.11.17.17 0 0 0 0 .13.16.16 0 0 0 .11.06l-.17.14a.2.2 0 0 0-.06.11.17.17 0 0 0 0 .12.18.18 0 0 0 .11.06l-.18.13a.24.24 0 0 0-.06.12.15.15 0 0 0 0 .12.17.17 0 0 0 .11.06l-.14.12a.19.19 0 0 0-.06.18.17.17 0 0 0 .1.06h.07l-.06.06a.28.28 0 0 0-.05.07 1 1 0 0 0-.15.29v.06a1.23 1.23 0 0 0 0 .27v1.13a.58.58 0 0 0 .1.31.64.64 0 0 0 .14.09h.71a.59.59 0 0 0 .28-.08h.05c-.07.29-.14.58-.22.85a.87.87 0 0 0 .3 1l.14.11.15.11v1.94c-.25 20-6.09 20-6.08 34.23v27.12c.2 2.43 1.26 3.83 2.38 4.47a1.72 1.72 0 0 0 .88.23h12.74a1.69 1.69 0 0 0 .87-.23c1.13-.64 2.18-2 2.39-4.47V47.54c0-14.23-5.83-14.2-6.08-34.23v-1.93l.15-.11zm-7.56-2.58a.32.32 0 0 0-.12-.15.4.4 0 0 0-.17-.09h-.21a.2.2 0 0 0-.13.06.19.19 0 0 0-.05.13.2.2 0 0 0 .05.13.18.18 0 0 0 0 .13.2.2 0 0 0 .05.13.18.18 0 0 0 .14.06h.13-.23a.21.21 0 0 1-.11 0V9a.18.18 0 0 1 0-.06V8.3a.64.64 0 0 1 .06-.3v-.05l.35-.3a.16.16 0 0 0 .06-.12.2.2 0 0 0 0-.13.2.2 0 0 0-.13-.06h-.03l.17-.34a.2.2 0 0 0 .07-.19.15.15 0 0 0-.1-.06l.1-.08a.22.22 0 0 0 .06-.11.24.24 0 0 0 0-.12.17.17 0 0 0-.14-.07l.17-.13a.16.16 0 0 0-.02-.24.13.13 0 0 0 0-.12.18.18 0 0 0-.12-.07l.16-.14a.16.16 0 0 0 .06-.11.15.15 0 0 0 0-.12.18.18 0 0 0-.11-.06l.17-.14a.18.18 0 0 0 .07-.11.25.25 0 0 0 0-.13.17.17 0 0 0-.12-.06l.17-.14a.16.16 0 0 0 .06-.17.19.19 0 0 0-.14-.06l.13-.1a1.22 1.22 0 0 0 1.19 1h.51v.03H681a.47.47 0 0 0-.47.47.48.48 0 0 0 .23.4 1.13 1.13 0 0 0 0 .21 17.42 17.42 0 0 1-.24 2.1zm.06-4.63h-.06.06zm7.53 0h.05-.05V4zm.12.48a.16.16 0 0 0-.13.06.17.17 0 0 0 .06.17l.17.14a.17.17 0 0 0-.11.06.24.24 0 0 0 0 .13.18.18 0 0 0 .06.11l.17.14a.22.22 0 0 0-.11.06.21.21 0 0 0 0 .12.16.16 0 0 0 .07.11l.17.14a.17.17 0 0 0-.11.07.19.19 0 0 0 0 .12.18.18 0 0 0 .06.12l.17.13a.18.18 0 0 0-.14.07.16.16 0 0 0 0 .12.19.19 0 0 0 .06.11l.1.08a.15.15 0 0 0-.1.06.21.21 0 0 0 .06.19l.17.15h-.07a.2.2 0 0 0-.13.06.19.19 0 0 0 0 .13.2.2 0 0 0 .05.12l.34.3v.05a.59.59 0 0 1 .07.3v1.11a.26.26 0 0 1-.12 0h-.16.14a.19.19 0 0 0-.06-.07.18.18 0 0 0 0-.12.21.21 0 0 0 0-.13.19.19 0 0 0 .06-.13.19.19 0 0 0-.06-.13.21.21 0 0 0-.13-.06h-.21a.39.39 0 0 0-.18.09.38.38 0 0 0-.13.15 20.84 20.84 0 0 1-.24-2.1.71.71 0 0 0 0-.21.48.48 0 0 0 .23-.4.47.47 0 0 0-.47-.47h-1.25v-.08h.5a1.23 1.23 0 0 0 1.2-1z" fill="#53524e" fill-rule="evenodd"/><path fill="#53524e" d="M0 76.02h768v11.14H0z"/><path d="M231 2.85h-5.23a1 1 0 0 0-1 1v.07a.86.86 0 0 0 .1.41.19.19 0 0 1 0 .1.21.21 0 0 1-.09.18.1.1 0 0 0 0 .07.09.09 0 0 0 0 .07.21.21 0 0 1 .09.17.22.22 0 0 1 0 .1.85.85 0 0 0-.1.41v1.88a.86.86 0 0 0 .26.63l.17.16a.25.25 0 0 0 .18.07h.05l-.6 8.95c-.37 5.42-5.29 8.26-6.1 13.32-.61 3.79.92 7.71 1.29 12a113.65 113.65 0 0 1-.37 22.69c-.07.53-.73 5.08-1.26 8.76a3.71 3.71 0 0 0 3.71 4.29h12.54a3.71 3.71 0 0 0 3.71-4.29c-.54-3.68-1.2-8.23-1.26-8.76a113.53 113.53 0 0 1-.38-22.69c.37-4.34 1.9-8.25 1.29-12-.81-5.06-5.74-7.9-6.1-13.32l-.6-8.95h.06a.24.24 0 0 0 .18-.07l.17-.16a.84.84 0 0 0 .29-.63V5.44a.88.88 0 0 0-.1-.41.21.21 0 0 1 0-.1.21.21 0 0 1 .1-.17.09.09 0 0 0 0-.07.1.1 0 0 0 0-.07.21.21 0 0 1-.09-.18.18.18 0 0 1 0-.1.89.89 0 0 0 .1-.41v-.1a1 1 0 0 0-1.01-.98zM505.12 3.54a.24.24 0 0 1-.15 0v.09h.19a.26.26 0 0 1 .26.26.24.24 0 0 1-.12.21h.34a.36.36 0 0 1 .36.35v.13a.35.35 0 0 1-.17.3h.05l.73 3.41h.06a.55.55 0 0 1 .55.55V11a.93.93 0 0 0 .2 0 .49.49 0 0 0 .31-.27 1.37 1.37 0 0 0 .11-.59 3.27 3.27 0 0 0-.14-.9l-1.55-5.29a.51.51 0 0 0-.25-.32h-.07a.62.62 0 0 0-.2 0h-.5zm-5.3 4.78h-.14a.55.55 0 0 0-.55.55V11a.56.56 0 0 1-.17 0 .5.5 0 0 1-.32-.27 1.44 1.44 0 0 1-.1-.59 2.85 2.85 0 0 1 .14-.9l1.55-5.29a.58.58 0 0 1 0-.08.32.32 0 0 1 .05-.08.52.52 0 0 1 .44-.21h.5a.27.27 0 0 0 .15 0v.01h-.19a.25.25 0 0 0-.25.26.25.25 0 0 0 .11.21h-.35a.36.36 0 0 0-.35.35v.17a.36.36 0 0 0 .2.32l-.74 3.42zm-.14 1.48V11h.21l.11.13a1.64 1.64 0 0 0 .26.17v-.5a2 2 0 0 0-.61-1zm6.5 1.45V10.8a1.44 1.44 0 0 1 .52-.86V11a.43.43 0 0 0-.25.08l-.16.13h-.06zM497 78.62a4.56 4.56 0 0 1-4.54-4.55l.05-35.75a17.38 17.38 0 0 1 2-8.31c3-5.71 5.33-9.55 5.67-18.12a3 3 0 0 1-.55-.29v.93a.27.27 0 0 1-.27.27.28.28 0 0 1-.28-.27v-1a1.51 1.51 0 0 1-.32 0 1 1 0 0 1-.65-.55 1.93 1.93 0 0 1-.17-.83 4 4 0 0 1 .16-1.05l1.55-5.29a.78.78 0 0 1 .07-.18.86.86 0 0 1 .1-.16 1.07 1.07 0 0 1 .91-.47h.53L501 1.88a.36.36 0 0 1 .36-.45H505a.37.37 0 0 1 .37.45L505.09 3h.53a1.18 1.18 0 0 1 .39.07l.15.07a1.11 1.11 0 0 1 .51.65l1.54 5.29a3.93 3.93 0 0 1 .16 1.05 1.88 1.88 0 0 1-.17.83 1 1 0 0 1-.65.55 1.36 1.36 0 0 1-.32 0v1a.27.27 0 0 1-.55 0v-.92l-.12.08a2.65 2.65 0 0 1-.33.18c.33 8.59 2.71 12.43 5.67 18.15a17.35 17.35 0 0 1 2 8.31l.05 35.75a4.56 4.56 0 0 1-4.55 4.55H497z" fill="#53524e" fill-rule="evenodd"/><path d="M482 46.27l2.23-11.44-1.41-.27-2.26 11.62c-1-.06-2.11-.09-3.2-.09a75 75 0 0 0-7.64.46S470.94 75 471 76s3.75 2.06 6.34 2.06 6.27-1 6.34-2.06S485 46.55 485 46.55s-1.25-.15-3-.28zM102.82 11c.14-.37-.66-.57-.94-.79a1.79 1.79 0 0 1-.5-.77 2.13 2.13 0 0 0 .6-.78c.43-1-.32-2.7-.87-3.46s0-2.08-1.08-2.08a3.35 3.35 0 0 0-1.11.22 17.3 17.3 0 0 1-.61-2.14c0-.62-.08-.48-.68-.26-1.74.63-3 3.67-4.57 4.84a.67.67 0 0 0-.33.06c-1.37.53-1.39 2.42-1.35 3.6-3.69 1.16-5.55 5.75-6.36 11.94h-.22c-1.22-8.42-4-19.59-4-21.37 0-.14-.37 4.66-.38 6.38 0 5.62.71 6.51 2.4 10.57a17.29 17.29 0 0 1 1.13 4.42h-2.69a.81.81 0 0 0-.64.9.85.85 0 0 0 .52.86v6.45c-5 0-5 7-5 7v42.8h18.55V36.62s0-7-5-7v-6.49a.85.85 0 0 0 .52-.86.81.81 0 0 0-.65-.9h-3.42c.75-5.71 2.4-9.89 5.64-10.84a3.54 3.54 0 0 0 2.11 1.35 3 3 0 0 0 1.27-.18.2.2 0 0 0 .12-.17l4 .11c1.08.03 3.1.47 3.54-.64zM120.17 39.24a1.24 1.24 0 0 0-1.24 1.24 1.21 1.21 0 0 0 .33.83l-2.82 4.12a126.35 126.35 0 0 0-16.7.41c1.29 1.93 7.1 9.53 8.29 11a11.89 11.89 0 0 0 .92 1.9 67.29 67.29 0 0 1 0 12.58c-.24 1.33-.64 2.9-1.15 3.36a12.67 12.67 0 0 0-3.18.74s-1.6.37-1.66.78c-.14 1 4 1.3 6.68 1.33 3 0 7-.64 7-1.42s-1.52-.83-2.44-1a23 23 0 0 1-2.58-.56c-.23-.23-.41-.83-1-3.27s.32-12.35.46-12.63a11.72 11.72 0 0 0 .92-1.89c1.15-1.29 6.82-9.26 7.93-11.11-.84-.1-1.86-.18-3-.24l2.62-3.84a1.19 1.19 0 0 0 .45.09 1.23 1.23 0 0 0 .17-2.42zM355.57 29c2.11-1.12 9.24-.83 10.75 0a106.67 106.67 0 0 1 .11 11.54c-.19 2.63-.87 8.16-3.25 12.39a12.77 12.77 0 0 0-1.46 6.07c0 1-.21 7.29-.24 9.65 0 1.63.07 4.49.39 4.89.53.67 3.18 1.37 4.19 1.65s1.79.52 1.38 1-4.18 1.12-7.17 1.15c-2.24 0-5.59-.41-6.46-1-.63-.41.34-.9 1-1.06s4.22-1.25 4.61-1.66.39-3.28.42-5v-9.55c0-2.55-.08-4.45-1.06-6.24-2.31-4.21-3.07-9.8-3.22-12.32a115.08 115.08 0 0 1 .01-11.51zM336.36 29c2.11-1.12 9.25-.83 10.75 0a104.94 104.94 0 0 1 .11 11.54c-.22 2.7-.86 8.23-3.22 12.46a12.87 12.87 0 0 0-1.46 6.07c0 1-.22 7.29-.24 9.65 0 1.63.07 4.49.39 4.89.53.67 3.18 1.37 4.19 1.65s1.79.52 1.38 1-4.18 1.12-7.17 1.15c-2.24 0-5.6-.41-6.46-1-.62-.41.35-.9 1-1.06s4.23-1.25 4.61-1.66.38-3.28.41-5v-9.55c-.06-2.55-.08-4.45-1.06-6.24-2.3-4.21-3.07-9.8-3.22-12.32-.23-3.29-.2-8.67-.01-11.58z" fill="#53524e"/></svg><svg width="93" height="19" viewBox="-2 -2 93 19" id="best-seller" y="251"><title>best-seller</title><path d="M3.34 12.85c.73-1.06 1.71-1.3 2.67-2.16a1.76 1.76 0 0 0 0-2.79 1.69 1.69 0 0 0-2.67 1.11A1.69 1.69 0 0 0 .67 7.88a1.76 1.76 0 0 0 0 2.79c.96.87 1.94 1.12 2.67 2.18zM85.99 12.85c.73-1.06 1.71-1.3 2.67-2.16a1.76 1.76 0 0 0 0-2.79 1.69 1.69 0 0 0-2.67 1.11 1.69 1.69 0 0 0-2.67-1.13 1.76 1.76 0 0 0 0 2.79c.97.87 1.94 1.12 2.67 2.18z" fill="#ffdd30"/><path d="M15.6 6.46c-.4.06-1-.49-1.11-1.06a.77.77 0 0 1 .06-.44 4.4 4.4 0 0 1 3.44-2.42 4 4 0 0 1 4.66 3.29 3.6 3.6 0 0 1-1.49 3.55 2 2 0 0 1 1.31 1.67 3.36 3.36 0 0 1-3 3.55c-2.79.39-4.5-.18-4.58-.75a.84.84 0 0 1 .69-.87c.35 0 .59.3 1.08.62 1.06-.85.43-5.88 1-8.89a.6.6 0 0 1 .57-.49c.45-.06 1 .18 1.08.6a.48.48 0 0 1 0 .15c-.4 2.46.07 7.87-2.1 8.92a3.14 3.14 0 0 0 1.89.39c1.38-.19 2-1.83 1.86-3.13a2 2 0 0 0-.74-1.37 3.36 3.36 0 0 1-.4.09c-.37.05-.72 0-.75-.19s.27-.4.61-.45a3.81 3.81 0 0 1 .46 0 5 5 0 0 0 .95-3.91 4.54 4.54 0 0 0-.72-2 2.85 2.85 0 0 0-1.3-.11 3.94 3.94 0 0 0-3.16 2.91.37.37 0 0 1-.31.34zM28.3 6.61c.16 1.62-.83 4-2.62 4.21a2.24 2.24 0 0 1-.65 0c.07.74.27 2 1.32 1.92 1.61-.16 2.29-2.07 2.66-2.81.08-.18.16-.26.25-.26s.13.06.14.16a.67.67 0 0 1 0 .24c-.64 1.92-1.64 3.53-3.64 3.72-1.46.14-2.18-1.12-2.34-2.72-.25-2.52.88-5.93 2.66-6.11a1.65 1.65 0 0 1 1 .19c.75-.03 1.13.63 1.22 1.46zm-3.16 3.71c1-.1 2.17-2.92 2-4.24 0-.27-.09-.56-.34-.53-1 .1-1.83 2.71-1.83 4.76a.38.38 0 0 0 .17.01z" fill="#d0d0cf"/><path d="M27.76 11.73c0-.53.26-1.24.88-1.15a38 38 0 0 0 2-4.4 3.92 3.92 0 0 1-.34-1.34c-.07-1.14.4-2.09 1-2.13.41 0 .65.25.68.72a6 6 0 0 1-.9 2.82c.45 1.2 1.49 2.82 1.57 4.18a3.28 3.28 0 0 1-.29 1.69 7.64 7.64 0 0 0 1.5-2.53 40.79 40.79 0 0 1 .6-4.26 13.61 13.61 0 0 1-1.46 0c-.2 0-.3-.22-.32-.44s.09-.53.27-.54c.46 0 1.07 0 1.7-.05.14-.76.31-1.52.49-2.21a.67.67 0 0 1 .67-.47.84.84 0 0 1 .94.79 9.87 9.87 0 0 1-.33 1.89c1 0 1.62 0 1.63.24s-.37.4-1.82.61a33.42 33.42 0 0 0-1.08 6.23c0 .44.15.71.4.69.66 0 1.41-2 1.84-2.75.11-.21.18-.32.27-.32s.12.06.13.18a.76.76 0 0 1-.05.29c-.2.61-1.2 3.46-2.62 3.55-.66 0-1.25-.4-1.33-1.67v-.51a3.64 3.64 0 0 1-3.37 2.49c-1.91.14-2.66-.79-2.66-1.6zm1.32-.93c.47.46-.1 2.25.9 2.19.56 0 1.2-.65 1.07-2.79 0-.58-.18-1.73-.29-2.76a20.59 20.59 0 0 1-1.71 3.35zM46.48 9.96a2.15 2.15 0 0 1-.84 1.79 2.82 2.82 0 0 1-2.47 1.09c-.88 0-1.69-.26-3.09-1.54a.54.54 0 0 1-.19-.39c0-.37.47-.77 1-.77 1.16 0 1.34 1.67 3.29 1.66 1.05 0 1.32-.5 1.32-.89 0-1.38-3.33-2.42-3.36-5.16 0-2.11 1.95-5.15 3.48-5.16.48 0 1 .28 1.07.5a1.62 1.62 0 0 1 .9 1.51 26.37 26.37 0 0 1-.45 3.15c-.1.58-.37.85-.86.86a.75.75 0 0 1-.84-.81c0-1.09 1.19-2.66 1.18-3.75a1.34 1.34 0 0 0-.21-.71c-1.21 0-2.63 2.55-2.62 4 .05 1.94 2.68 2.56 2.69 4.62zM52.83 5.97c0 1.63-1.3 3.9-3.11 3.86a2.22 2.22 0 0 1-.64-.12c0 .75 0 2 1.08 2.06 1.62 0 2.52-1.78 3-2.47.11-.17.19-.23.28-.23s.12.07.12.17a.67.67 0 0 1-.06.24c-.8 1.89-2 3.36-4 3.32-1.46 0-2-1.37-2-3 .05-2.51 1.57-5.76 3.36-5.68a1.64 1.64 0 0 1 1 .31c.67.05.98.69.97 1.54zm-3.57 3.31c1 0 2.5-2.63 2.53-4 0-.27 0-.56-.28-.57-1 0-2.14 2.47-2.39 4.51a.38.38 0 0 0 .14.06z" fill="#d0d0cf"/><path d="M62.56.38c.41.28.7.58.63 1.72-.14 2.43-1.77 6.95-3.72 6.84h-.13a15.84 15.84 0 0 0-.34 2.14c0 .73.14 1.08.62 1.11.9.05 2-1.21 2.69-2.37.1-.18.2-.24.29-.24s.12.07.11.19a.74.74 0 0 1-.06.23c-.6 1.28-2.18 3.31-3.64 3.23-1.15-.07-1.49-1.12-1.4-2.65-.76 1.18-2 2.46-3.17 2.39s-1.49-1.12-1.4-2.65a18.4 18.4 0 0 1 .58-3.34c.82-3.36 1.92-6.61 3.46-6.66a1.07 1.07 0 0 1 .65.26c.25.08.67.28.6 1.34-.12 2.12-1.74 6.61-3.59 6.95a14.19 14.19 0 0 0-.3 1.94c0 .73.14 1.08.62 1.11.87 0 2-1.13 2.63-2.27.43-3.43 2.42-9.74 4.22-9.63a.86.86 0 0 1 .65.36zm-7.74 8A12.73 12.73 0 0 0 57.47.99c-.71.39-1.97 4.42-2.65 7.39zm4.61.12c1.66-1.34 3-5.63 2.84-7.79-.62.21-2.1 4.6-2.84 7.79z" fill="#d0d0cf"/><path d="M67.82 7.01c-.16 1.62-1.59 3.79-3.39 3.62a2.25 2.25 0 0 1-.63-.16c-.07.74-.13 2 .92 2.14 1.61.15 2.65-1.59 3.15-2.24.12-.16.21-.22.29-.21s.11.08.1.18a.68.68 0 0 1-.07.23c-.94 1.82-2.27 3.2-4.22 3-1.46-.14-1.92-1.52-1.77-3.12.24-2.52 2-5.65 3.79-5.48a1.65 1.65 0 0 1 .94.38c.71.15.97.83.89 1.66zm-3.81 3c1 .09 2.69-2.44 2.82-3.76 0-.27 0-.56-.23-.59-1-.09-2.32 2.31-2.72 4.32a.38.38 0 0 0 .13.06z" fill="#d0d0cf"/><path d="M68.38 13.49a.63.63 0 0 1-.69.48.67.67 0 0 1-.55-.82 38.76 38.76 0 0 1 2.22-6.94.63.63 0 0 1 .69-.34.8.8 0 0 1 .71.85 4.89 4.89 0 0 1-.41 1c.77-1.22 1.63-2.08 2.46-2 .62.08.81.48.72 1.21-.12.94-.87 1.93-1.1 2.9a.56.56 0 0 1-.66.47.85.85 0 0 1-.72-1c.13-1 .93-1.8 1-2.33 0-.12 0-.21-.14-.22-.57-.07-2.26 2.17-3.05 5zM72.37 13.62a1.58 1.58 0 0 1 1.75-1.31.89.89 0 0 1 .83 1.09 1.56 1.56 0 0 1-1.7 1.32.93.93 0 0 1-.88-1.1zm2.22-2.36c-.13 0-.25-.18-.21-.44a.69.69 0 0 1 0-.18 64.06 64.06 0 0 1 3.37-8 1 1 0 0 1 1.12-.52.8.8 0 0 1 .74.91 1.35 1.35 0 0 1-.18.47c-1.74 2.81-3.17 5-4.41 7.45-.12.24-.26.33-.42.31z" fill="#d0d0cf"/></svg><svg width="20" height="16" viewBox="-2 -2 20 16" id="bow" y="270"><title>bow</title><path d="M15.97 12.11c-4.2-.29-6.79-3.54-7.75-5.06-1 1.52-3.55 4.77-7.75 5.06l-.06-.87c3.92-.24 6.32-3.57 7.1-4.85-1.43-.32-5-1.23-6.46-2.54a2.52 2.52 0 0 1-.86-3c.23-.41 1-1.28 3.14-.61 2.36.76 4.11 3.5 4.86 4.88C8.97 3.74 10.68 1 13.05.25c2.13-.67 2.9.2 3.14.61a2.52 2.52 0 0 1-.86 3c-1.42 1.31-5 2.22-6.46 2.54.78 1.27 3.19 4.6 7.1 4.84zM14.47.89a3.76 3.76 0 0 0-1.15.2c-2 .64-3.6 3.08-4.32 4.37 1.53-.36 4.57-1.18 5.73-2.25a1.74 1.74 0 0 0 .7-1.92 1 1 0 0 0-.96-.4zM1.91.89a1 1 0 0 0-1 .4 1.74 1.74 0 0 0 .7 1.92c1.2 1.07 4.24 1.89 5.76 2.25-.71-1.29-2.29-3.74-4.31-4.37a3.76 3.76 0 0 0-1.15-.2z" fill="#fdd631"/></svg><svg width="44" height="474" viewBox="-2 -2 44 474" id="buttercup-long" y="286"><title>buttercup-long</title><path d="M37 458.12c-.75-.53-3.73-1.88-3.73-1.88l-.35.13a6.19 6.19 0 0 1-1-.26c-.88-.27-1.85-1.89-2.59-3.38s-.74-4-.74-7.41a34.7 34.7 0 0 0-1.15-8 8.3 8.3 0 0 0-1.64-3V0h-1.29v431.7l-.31 2.58a13 13 0 0 0-1.2 2.19 8.11 8.11 0 0 0-.68 4.14.3.3 0 0 0-.35.24c0 .66.4 4 .4 4a1 1 0 0 0-.07.33.27.27 0 0 0 .17.23l.4 2.23c.07.39.3.33.3.33l.55 3.75h-.92c-.76 0-.56.46-.33.72a1.69 1.69 0 0 1 .16 1.45c-.2.36.66.26.66.26-.39 1.58-3.36 2.4-3.36 2.4l-.46.33c-4 .79-19 1.05-19 1.05a32.45 32.45 0 0 0-.27 9.6c3.34.35 17.36 1.31 19.55 1.53a.51.51 0 0 0 .22.31 23 23 0 0 0 7.07 1 21.56 21.56 0 0 0 8-1.84C36.71 468 40 466.15 40 463a5.65 5.65 0 0 0-3-4.91" fill="#ffdb46"/></svg><svg width="33" height="33" viewBox="-2 -2 33 33" id="cal" y="760"><title>Group</title><path d="M26.583 10.875V6.047l-3.625-.003v1.202a1.207 1.207 0 0 1-2.416 0V6.044L8.458 6.042v1.204a1.207 1.207 0 0 1-2.416 0V6.042h-3.62s-.002 2.04-.002 4.833h24.163zm0 2.417H2.418c-.003 5.91-.003 13.286-.003 13.286 0 .004 24.16.005 24.16.005.003 0 .004-7.38.005-13.29zm-3.625-9.667h3.62A2.42 2.42 0 0 1 29 6.047v20.53A2.422 2.422 0 0 1 26.577 29H2.423A2.42 2.42 0 0 1 0 26.578V6.048a2.422 2.422 0 0 1 2.423-2.423h3.62V1.212a1.207 1.207 0 0 1 2.415 0v2.413h12.084V1.212a1.207 1.207 0 0 1 2.416 0v2.413z" fill="#51514D" fill-rule="nonzero"/></svg><svg width="27" height="27" viewBox="-2 -2 27 27" id="calendar" y="793"><title>1467954314_calendar</title><g fill="#FFF" fill-rule="evenodd"><path d="M21.084 2.156H17.97V.72a.718.718 0 0 0-1.44 0v1.436h-4.31V.72a.72.72 0 0 0-1.44 0v1.436H6.47V.72a.72.72 0 0 0-1.44 0v1.436H1.918C.857 2.156 0 3.014 0 4.072v17.01C0 22.143.858 23 1.917 23h19.167c1.06 0 1.916-.858 1.916-1.917V4.073c0-1.06-.857-1.917-1.916-1.917zm.48 18.927a.48.48 0 0 1-.48.48H1.917a.48.48 0 0 1-.48-.48V4.073a.48.48 0 0 1 .48-.48H5.03v1.438a.72.72 0 0 0 1.44 0V3.595h4.31V5.03a.72.72 0 0 0 1.44 0V3.595h4.31V5.03a.718.718 0 0 0 1.44 0V3.595h3.114a.48.48 0 0 1 .48.478l-.002 17.01z"/><path d="M5.03 8.625h2.876v2.156H5.03zM5.03 12.22h2.876v2.155H5.03zM5.03 15.813h2.876v2.156H5.03zM10.063 15.813h2.875v2.156h-2.875zM10.063 12.22h2.875v2.155h-2.875zM10.063 8.625h2.875v2.156h-2.875zM15.094 15.813h2.875v2.156h-2.876zM15.094 12.22h2.875v2.155h-2.876zM15.094 8.625h2.875v2.156h-2.876z"/></g></svg><svg width="23" height="22" viewBox="-2 -2 23 22" id="cart" y="820"><title>cart</title><circle cx="11.84" cy="15.76" r="1.87" fill="#666663"/><circle cx="2.34" cy="15.76" r="1.87" fill="#666663"/><path fill="none" stroke="#666663" stroke-linecap="round" stroke-linejoin="round" stroke-width="1.2" d="M2.75 14.48l8.71-.12L16.03.84 17.94.6"/><path d="M12.66 11.18s-9.28.09-10.57-1.17c-1-1-2.12-7.42-2.12-7.42h15.26z" fill="#666663"/></svg><svg width="41" height="39" viewBox="-2 -2 41 39" id="cart-mobile" y="842"><title>cart-mobile</title><circle cx="22.22" cy="30.75" r="2.36" fill="none" stroke="#4e4e4a" stroke-linecap="round" stroke-linejoin="round" stroke-width="3.038"/><circle cx="7.27" cy="30.75" r="2.36" fill="none" stroke="#4e4e4a" stroke-linecap="round" stroke-linejoin="round" stroke-width="3.038"/><path fill="none" stroke="#4e4e4a" stroke-linecap="round" stroke-linejoin="round" stroke-width="3.038" d="M7.27 28.38l14.97-.25 9.57-26.11 4-.5"/><path d="M24.78 21.85s-16.17.38-18.82-2.26c-2-2-4.44-13.18-4.44-13.18h28.62z" fill="none" stroke="#4e4e4a" stroke-linecap="round" stroke-linejoin="round" stroke-width="3.038"/></svg><svg preserveAspectRatio="xMidYMid" width="17" height="19" viewBox="-2 -2 17 19" id="checkbox" y="881"><defs><style>.ancls-1{stroke:#797875;stroke-width:1px;fill:none}.ancls-2{fill:none;stroke:#fedc4e;stroke-width:2px;fill-rule:evenodd}</style></defs><path class="ancls-1" d="M1 4h11v10H1z"/><path d="M4 6.57L6.333 9 11 1" class="ancls-2"/></svg><svg width="26" height="24" viewBox="-2 -2 20 19" id="checkbox-alt" y="900"><title>checkbox-alt</title><rect x=".38" y="1.59" width="12.96" height="12.96" rx="1.73" ry="1.73" fill="none" stroke="#5f5f5b" stroke-linecap="round" stroke-linejoin="round" stroke-width=".75"/><path fill="none" stroke="#ffdd30" stroke-linecap="round" stroke-linejoin="round" stroke-width="2" d="M15.33 1L6.96 9.38 4.77 7.19"/></svg><svg width="26" height="24" viewBox="-2 -2 20 19" id="checkbox-alt-off" y="924"><title>checkbox-alt-off</title><rect x=".38" y="1.59" width="12.96" height="12.96" rx="1.73" ry="1.73" fill="none" stroke="#5f5f5b" stroke-linecap="round" stroke-linejoin="round" stroke-width=".75"/></svg><svg preserveAspectRatio="xMidYMid" width="17" height="19" viewBox="-2 -2 17 19" id="checkbox-off" y="948"><defs><style>.aqcls-1{stroke:#797875;stroke-width:1px;fill:none}</style></defs><path class="aqcls-1" d="M1 4h11v10H1z"/></svg><svg width="16" height="26" viewBox="-2 -2 16 26" id="chevron-left" y="967"><title>arrow-left</title><path d="M10.56.01a1.41 1.41 0 0 1 1 .44 1.55 1.55 0 0 1 0 2.13l-8.07 8.43 8.1 8.44a1.55 1.55 0 0 1 0 2.13 1.4 1.4 0 0 1-2 .06l-.06-.06-9.11-9.51a1.55 1.55 0 0 1 0-2.13L9.55.44a1.41 1.41 0 0 1 1.01-.43z" fill="#fff"/></svg><svg width="17" height="26" viewBox="-2 -2 17 26" id="chevron-right" y="993"><title>arrow-right</title><path d="M1.53 21.99a1.5 1.5 0 0 1-1.06-2.56l8.42-8.39L.47 2.59A1.5 1.5 0 1 1 2.53.41l.06.06 9.46 9.48a1.49 1.49 0 0 1 0 2.09l-9.46 9.51a1.5 1.5 0 0 1-1.06.44z" fill="#fff"/></svg><svg width="10" height="14" viewBox="-2 -2 10 14" id="chevron-yellow-right" y="1019"><defs><clipPath id="ata"><path fill="none" d="M0 0h6.23v10.33H0z"/></clipPath></defs><title>chevron-yellow-right</title><g clip-path="url(#ata)"><path fill="none" stroke="#ffdd30" stroke-linecap="round" stroke-linejoin="round" stroke-width="2" d="M1 1l4.23 4.17L1 9.33"/></g></svg><svg width="66" height="47" viewBox="-2 -2 66 47" id="cruelty-free" y="1033"><title>cruelty-free</title><path d="M25.06 12.11a11.11 11.11 0 0 1 7-1.22c3.73.71 9.66 4.92 12.39 10.18 0 0 4.85.13 5 2S46.5 27 44 26.54c0 0 .1-.67 1.49-1a2.78 2.78 0 0 0 1.68-2.14 4.68 4.68 0 0 0-3.82-.05s-2.79-5.35-7.19-8.16-6.16-3.28-11.1-2.77v-.31zM32.42 26.3s5.24 8.28 10.58 8.28 5.25-3 5.25-3a8.52 8.52 0 0 0 .68 3c1.07 2.42 3.41 5.23 7.19 3.73a.44.44 0 0 0 .09-.31.3.3 0 0 0-.09-.24s-4.28-.82-6.6-7.63c0 0-.46-1.89-.76-1.63s-2.67 5-6.35 4-8.15-4.28-9.26-6.21c0 0-1.27-.83-.72 0z" fill="#64635f"/><path d="M47.93 34.29a10.51 10.51 0 0 0 .46 3.71 6.07 6.07 0 0 0 2.09 2.22.58.58 0 0 1-.43.26A3.45 3.45 0 0 1 46.42 38c-.73-2.82.86-3.87.86-3.87s.67-.4.65.19zM5.89 26.17s9.58-3.26 15.23 1.76c0 0 .63.08.41-.5s-1.8-3.85-6.47-4.27-8.19 1-9.39 2.52c-.24.32-.21.62.21.49zM.37 20.72a8.75 8.75 0 0 1 3.5-.64 17.11 17.11 0 0 1 3.93.32s1 .06 0-.65-3.54-1.93-5.64-1.36S0 20.25 0 20.25s0 .63.37.47z" fill="#64635f"/><path d="M16 23.43a6.2 6.2 0 0 1-2.95-2.36 7 7 0 0 1-1.34-3.9s-3.91-.59-5-3.12S5.65 10 8.54 9.43s4.62-.43 6.11.49l.11-1.78s-5.18-1.76-8.47 1.2-.7 7 1.71 8.42c.62.37 1.66.32 2.16.9 0 0 1.91 4.28 2.94 4.67a5.35 5.35 0 0 0 2.95.1z" fill="#64635f"/><path d="M5.89 10.92a4.26 4.26 0 0 1 1.83.31c.18.27-1.24.77-1.62 1.17a.28.28 0 0 0-.09.16 13.38 13.38 0 0 1-.12-1.64zM9.85 11.13a7.43 7.43 0 0 1 1.82-.13 9 9 0 0 1 1.56.19 1.73 1.73 0 0 0-.06-.73c-.12-.39-.74-.59-1.62-.48a1.88 1.88 0 0 0-1.7 1.16zM11 7.62s2.64-2.91 4.82-3.75 4.93-.47 5 0 0 .5-.7.42-4.29 0-5.89 2.88l.2 1.26L11 7.62z" fill="#64635f"/><path d="M14.65 9.92a.36.36 0 0 0 .41 0 21.37 21.37 0 0 1 3.5-2.33c1.45-.61 2.75-1 3-.69s-.44 2-2.27 3.33a28.79 28.79 0 0 1-3.08 2 3.72 3.72 0 0 0 1.22 0 16 16 0 0 0 5.18-4 3 3 0 0 0 .6-3.11c-.17-.27-2.06-.6-8.48 2.91 0 0-.48.27-.11 1.78zM12.12 34.85S27 49.05 45 39.36c0 0-16.45 6.5-29.69-5.7l-3.2 1.19zM12.04 27.6l.32 2.15 2.07.6-1.95.99.06 2.13-1.52-1.51-2.03.68.97-1.9-1.29-1.73 2.11.37 1.26-1.78zM54.12 16.47S44.34-1.62 24.22 2c0 0 17.65-1.12 26.49 14.58l3.41-.15zM51.96 23.41l.34-2.13-1.75-1.23 2.11-.34.64-2.05.98 1.91 2.13-.02-1.52 1.49.7 2.06-1.91-1-1.72 1.31zM54.93 4.79h1.28a1.58 1.58 0 0 0 .94-.24.86.86 0 0 0 .3-.72.74.74 0 0 0-.3-.67 1.76 1.76 0 0 0-.94-.21h-1.28v1.84zM54 2.19h2.42a2.34 2.34 0 0 1 1.47.43 1.34 1.34 0 0 1 .59 1.17 1.61 1.61 0 0 1-.59 1.32 2.14 2.14 0 0 1-1.08.43l1.72 2.59h-1.08l-1.52-2.56h-1v2.56H54V2.19zm5.26-.07a4 4 0 0 0-3-1.23 4.09 4.09 0 0 0-3 1.23 4.21 4.21 0 0 0-1.22 3 4.06 4.06 0 0 0 1.22 3 4 4 0 0 0 3 1.25 4 4 0 0 0 3-1.25 3.93 3.93 0 0 0 1.22-3 4.08 4.08 0 0 0-1.22-3zM60 1.5a4.9 4.9 0 0 1 1.57 3.68A4.8 4.8 0 0 1 60 8.83a5.33 5.33 0 0 1-7.45 0A4.88 4.88 0 0 1 51 5.17a5 5 0 0 1 1.54-3.67 5.39 5.39 0 0 1 7.46 0z" fill="#64635f"/></svg><svg width="28" height="24" viewBox="-2 -2 28 24" id="directions" y="1080"><defs><clipPath id="ava"><path fill="none" d="M0 0h24.35v20.33H0z"/></clipPath></defs><title>directions</title><g clip-path="url(#ava)"><path d="M24.35 17.79A2.46 2.46 0 0 1 22 20.33H2.38A2.46 2.46 0 0 1 0 17.79V2.54A2.46 2.46 0 0 1 2.38 0H22a2.46 2.46 0 0 1 2.38 2.54z" fill="#989896"/><path fill="#fff" d="M17.95 8.42l-6.08 4.14 2.4-4.14-2.4-4.14 6.08 4.14z"/><path fill="none" stroke="#fff" stroke-linecap="round" stroke-linejoin="round" d="M17.95 8.42l-6.08 4.14 2.4-4.14-2.4-4.14 6.08 4.14z"/><path fill="none" stroke="#fff" stroke-linecap="round" stroke-linejoin="round" stroke-width="2" d="M15.81 8.39H7.82v7.41"/></g></svg><svg width="23" height="15" viewBox="-2 -2 23 15" id="dots-triangle" y="1104"><title>dots-triangle</title><circle cx="1.13" cy="1.13" r="1.13" fill="#757471" fill-opacity=".6"/><circle cx="5.31" cy="5.56" r="1.13" fill="#757471" fill-opacity=".6"/><circle cx="9.5" cy="10" r="1.13" fill="#757471" fill-opacity=".6"/><circle cx="13.69" cy="5.56" r="1.13" fill="#757471" fill-opacity=".6"/><circle cx="17.88" cy="1.13" r="1.13" fill="#757471" fill-opacity=".6"/></svg><svg width="23" height="16" viewBox="-2 -2 23 16" id="dots-triangle-fade" y="1119"><title>dots-triangle</title><g fill="#5F605C" fill-rule="evenodd"><circle cx="1.13" cy="1.13" r="1.13"/><circle cx="5.31" cy="5.56" r="1.13"/><circle cx="9.5" cy="10" r="1.13"/><circle cx="13.69" cy="5.56" r="1.13"/><circle cx="17.88" cy="1.13" r="1.13"/></g></svg><svg width="19" height="23" viewBox="-2 -2 19 23" id="download-gray" y="1135"><title>download-gray</title><path fill="#b2b2b0" d="M4.31 0h6.38v7.44H4.31z"/><path fill="#b2b2b0" d="M13.99 7.01l-6.49 6.6L1 7.01h12.99z"/><path fill="none" stroke="#b2b2b0" stroke-linecap="round" stroke-linejoin="round" stroke-width="2" d="M1 18.12h12.99"/></svg><svg width="19" height="23" viewBox="-2 -2 19 23" id="download-yellow" y="1158"><title>download-yellow</title><path fill="#ffdd30" d="M4.31 0h6.38v7.44H4.31z"/><path fill="#ffdd30" d="M13.99 7.01l-6.49 6.6L1 7.01h12.99z"/><path fill="none" stroke="#ffdd30" stroke-linecap="round" stroke-linejoin="round" stroke-width="2" d="M1 18.12h12.99"/></svg><svg width="24" height="23" viewBox="-2 -2 24 23" id="edit" y="1181"><title>edit</title><g fill="#FFF" fill-rule="evenodd"><path d="M14.2.9l4.4 4.4c1.2-1.2 1.2-3.1 0-4.4-1.2-1.2-3.2-1.2-4.4 0zM17.4 6.4L13 2l-9.5 9.5-3.1 7.4 7.4-3.1 9.6-9.4zm-9.9 8.8L3.2 17l-.7-.7L4.3 12s.8.1 1.2.5c.4.4.3 1.1.1 1.3.2-.2.9-.3 1.3.1.4.5.6 1.3.6 1.3z"/></g></svg><svg width="41" height="33" viewBox="-2 -2 41 33" id="hamburger" y="1204"><title>hamburger</title><path fill="none" stroke="#4f4f4b" stroke-linecap="round" stroke-linejoin="round" stroke-width="5" d="M2.5 2.5h32M2.5 14.5h32M2.5 26.5h32"/></svg><svg width="25" height="20" viewBox="-2 -2 25 20" id="heart" y="1237"><title>heart</title><path d="M10.31 16.26c2.24-3.26 5.26-4 8.18-6.69 3.18-2.9 2.47-6.74 0-8.56a5.2 5.2 0 0 0-8.22 3.43 5.2 5.2 0 0 0-8.18-3.43c-2.43 1.82-3.15 5.66 0 8.56 2.97 2.67 5.98 3.44 8.22 6.69z" fill="#ffdb46"/></svg><svg width="17" height="14" viewBox="-2 -2 17 14" id="heart-gray" y="1257"><title>heart-gray</title><path d="M6.44 10.17c1.4-2 3.28-2.52 5.1-4.19a3.37 3.37 0 0 0 0-5.36 3.24 3.24 0 0 0-5.1 2.15A3.24 3.24 0 0 0 1.31.63a3.38 3.38 0 0 0 .02 5.36C3.15 7.65 5 8.13 6.44 10.17z" fill="#706f6c"/></svg><svg width="12" height="11" viewBox="-2 -2 12 11" id="heart-gray-light" y="1271"><title>heart-gray-light</title><path d="M4.25 6.7c.92-1.34 2.16-1.66 3.37-2.76a2.22 2.22 0 0 0 0-3.52 2.14 2.14 0 0 0-3.38 1.41A2.14 2.14 0 0 0 .86.42a2.21 2.21 0 0 0 0 3.52c1.23 1.1 2.47 1.41 3.39 2.76z" fill="#888886"/></svg><svg width="24" height="22" viewBox="-2 -2 24 22" id="heart-layers" y="1282"><title>heart-layers</title><path d="M9.62 17.22a.57.57 0 0 0 1 0c2-2.7 4.6-3.6 7-6.2a6.22 6.22 0 0 0 0-9c-1.8-1.6-4.3-2-5.9-.9a3 3 0 0 1-3.4 0c-1.6-1-4-.6-5.9 1a6.21 6.21 0 0 0 0 9c2.7 2.5 5.2 3.4 7.2 6.1z" fill="#42413d" stroke="#42413d" stroke-miterlimit="10"/><path d="M10.12 13.72c1.3-1.9 3.1-2.3 4.8-3.9a3.19 3.19 0 0 0 0-5 3 3 0 0 0-4.2.7 3.79 3.79 0 0 0-.6 1.3 2.89 2.89 0 0 0-3.4-2.5 2.39 2.39 0 0 0-1.4.5 3.19 3.19 0 0 0 0 5c1.7 1.6 3.5 2 4.8 3.9z" fill="#ffdb46"/></svg><svg width="15" height="13" viewBox="-2 -2 15 13" id="heart-md" y="1304"><title>heart-md</title><path d="M5.5 8.67C6.7 6.93 8.31 6.54 9.87 5.1a2.86 2.86 0 0 0 0-4.56 2.77 2.77 0 0 0-4.39 1.83A2.77 2.77 0 0 0 1.12.54a2.88 2.88 0 0 0 0 4.56C2.7 6.53 4.31 6.94 5.5 8.67z" fill="#ffdb46"/></svg><svg width="15" height="13" viewBox="-2 -2 15 13" id="heart-outline" y="1317"><title>heart-outline</title><path d="M5.71 9.25A.5.5 0 0 1 5.3 9a7.1 7.1 0 0 0-2.25-2 13.15 13.15 0 0 1-1.81-1.27A3.51 3.51 0 0 1-.01 3 3.13 3.13 0 0 1 1.25.62 3 3 0 0 1 3.1 0a3.12 3.12 0 0 1 2.61 1.38A3.13 3.13 0 0 1 8.32 0a3.05 3.05 0 0 1 1.85.62A3.13 3.13 0 0 1 11.42 3a3.51 3.51 0 0 1-1.24 2.76 13.11 13.11 0 0 1-1.81 1.3A7.09 7.09 0 0 0 6.12 9a.5.5 0 0 1-.41.25zM3.09 1a2 2 0 0 0-1.24.42A2.13 2.13 0 0 0 .99 3a2.46 2.46 0 0 0 .92 2 12.4 12.4 0 0 0 1.68 1.22 9.23 9.23 0 0 1 2.12 1.71 9.26 9.26 0 0 1 2.12-1.71A12.19 12.19 0 0 0 9.51 5a2.47 2.47 0 0 0 .91-2 2.13 2.13 0 0 0-.86-1.6A2.06 2.06 0 0 0 8.32 1 2.12 2.12 0 0 0 6.2 2.83a.5.5 0 0 1-.5.43.5.5 0 0 1-.5-.43A2.12 2.12 0 0 0 3.09 1z" fill="#ffdd30"/></svg><svg width="12" height="10" viewBox="-2 -2 12 10" id="heart-sm" y="1330"><title>heart-sm</title><path d="M4 6.01c.87-1.2 2-1.49 3.18-2.47a1.92 1.92 0 0 0 0-3.15A2 2 0 0 0 4 1.65 2 2 0 0 0 .82.39a1.92 1.92 0 0 0 0 3.15C2 4.52 3.15 4.81 4 6.01z" fill="#ffdd30"/></svg><svg width="170" height="67" viewBox="-2 -2 170 67" id="logo" y="1340"><title>logo</title><path d="M0 30.3C0 23.5 5.32 18 11.71 18a10.33 10.33 0 0 1 8.21 4V11c0-6.73-.8-7.88-5.32-7.88V1.69L24.71 0v31.71c0 6.73.87 7.88 5.32 7.88V41l-8.95 1.67A25.3 25.3 0 0 1 20 38.58a10.28 10.28 0 0 1-8.28 4.1C5.32 42.68 0 37.1 0 30.3zm19.92 4.38V26c-1.21-3.17-3.77-5.32-6.8-5.32-5.25 0-7.67 4.24-7.67 9.62S7.88 40 13.13 40c3.03 0 5.59-2.16 6.79-5.32zM31.17 40.12c4.44 0 5.31-1.14 5.31-7.87v-3.37c0-6.73-.87-7.81-5.31-7.81v-1.4l9-1.69a26.87 26.87 0 0 1 1.14 4.85c1.3-2.7 4.33-4.83 7.03-4.83 3.71 0 5.31 2.49 5.31 4.17 0 1.48-.6 3.16-2.69 3.16a2.44 2.44 0 0 1-2.35-2.42 2 2 0 0 0-2.16-2.22c-1.55 0-5.19 2.49-5.19 7.87v3.71c0 6.73.81 7.87 5.32 7.87v1.42H31.17zM56.87 60.87c0-2.63 3-2.63 5.12-7.87l5.13-11.8-7.74-16.76c-1.42-3-2.43-4-4.52-4v-1.32h11.92v1.35c-3 0-3.64.67-2.15 4l4.92 10.77 4.3-10.77c1.21-3.1.82-4-2-4v-1.35h9.43v1.35c-2.09 0-3.57.94-4.78 4L61.66 60.6c-.54 1.35-1.41 2.49-2.49 2.49a2.16 2.16 0 0 1-2.3-2.22z" fill="#ffdd30"/><path d="M83.69 11c0-6.73-.88-7.88-5.32-7.88V1.69L88.47 0v21.95a10.33 10.33 0 0 1 8.21-4c6.39 0 11.65 5.52 11.65 12.32s-5.26 12.38-11.65 12.38a10.44 10.44 0 0 1-8.62-4.51l-3 4.51h-1.37zm19.24 19.3c0-5.39-2.42-9.62-7.66-9.62-3.1 0-5.6 2.15-6.8 5.32v8.62c1.21 3.23 3.7 5.39 6.8 5.39 5.24-.01 7.66-4.32 7.66-9.71zM110.14 36.76c0-5.72 6.67-8.21 14.34-9.56 0-5.05-.68-7.07-4.52-7.07-1.54 0-3.83 1.07-3.83 3.23a2.33 2.33 0 1 1-4.65 0c0-3.23 4.24-5.38 8.56-5.38 6.53 0 9.22 2.76 9.22 9.16V37.3c0 1.69.54 2.63 1.56 2.63a3 3 0 0 0 1.87-1l.94 1.28a6.36 6.36 0 0 1-4.44 2.09 4.26 4.26 0 0 1-4.58-3.91c-3.29 3-5.71 4-8.41 4-3.3.03-6.06-2.06-6.06-5.63zm14.34-.6v-6.88c-6.4 1.49-9.29 3.71-9.29 6.67a3.19 3.19 0 0 0 3.16 3.43c1.42.01 3.04-.47 6.13-3.22zM134.59 40.12c4.44 0 5.31-1.14 5.31-7.87v-3.37c0-6.73-.87-7.81-5.31-7.81v-1.4l8.95-1.67a28 28 0 0 1 1.15 4.85c1.31-2.72 4.37-4.85 7.06-4.85 3.7 0 5.32 2.49 5.32 4.17 0 1.48-.61 3.16-2.69 3.16a2.45 2.45 0 0 1-2.38-2.44 2 2 0 0 0-2.15-2.22c-1.55 0-5.18 2.49-5.18 7.87v3.71c0 6.73.8 7.87 5.32 7.87v1.42h-15.4zM165.63 19.13a3.28 3.28 0 1 1-3.28-3.29 3.28 3.28 0 0 1 3.28 3.29zm-2.15 2l-1.3-1.74h-.32v.47c0 .93.13 1.09.74 1.09v.19h-2.1V21c.62 0 .75-.15.75-1.09v-1.5c0-.93-.13-1.09-.75-1.09v-.19h2c.86 0 1.4.5 1.4 1.16a1.17 1.17 0 0 1-1.13 1.13l.59.68a2.1 2.1 0 0 0 1.29.88 3 3 0 1 0-2.31 1.12 3 3 0 0 0 2.15-.93zm-1-3.7h-.61v1.63h.61a.81.81 0 0 0 0-1.63z" fill="#fff"/></svg><svg width="96" height="39" viewBox="-2 -2 96 39" id="logo-mono" y="1407"><title>logo-mono</title><path d="M0 16.89A6.73 6.73 0 0 1 6.53 10a5.75 5.75 0 0 1 4.58 2.21V6.12c0-3.76-.45-4.39-3-4.39V.94L13.78 0v17.68c0 3.76.49 4.4 3 4.4v.79l-5 .93a14 14 0 0 1-.61-2.29 5.72 5.72 0 0 1-4.64 2.29A6.77 6.77 0 0 1 0 16.89zm11.11 2.45v-4.85a4.2 4.2 0 0 0-3.79-3c-2.93.04-4.32 2.4-4.32 5.4s1.39 5.41 4.32 5.41a4.2 4.2 0 0 0 3.79-2.96zm6.27 3c2.48 0 3-.64 3-4.39v-1.84c0-3.76-.49-4.36-3-4.36V11l5-.94a14.81 14.81 0 0 1 .64 2.7A4.88 4.88 0 0 1 27 10c2.07 0 3 1.39 3 2.32a1.52 1.52 0 0 1-1.26 1.75h-.24a1.36 1.36 0 0 1-1.31-1.36 1.12 1.12 0 0 0-1-1.23h-.28C25 11.53 23 12.92 23 15.92V18c0 3.75.45 4.39 3 4.39v.79h-8.6v-.8zm14.34 11.61c0-1.47 1.69-1.47 2.85-4.4L37.44 23l-4.31-9.35c-.79-1.69-1.36-2.21-2.52-2.21v-.78h6.65v.76c-1.65 0-2 .37-1.2 2.21l2.74 6 2.4-6c.67-1.73.46-2.21-1.09-2.21v-.76h5.26v.76c-1.17 0-2 .52-2.67 2.21L34.39 33.8A1.84 1.84 0 0 1 33 35.18a1.2 1.2 0 0 1-1.28-1.11v-.12zm15-27.83c0-3.76-.49-4.39-3-4.39V.94L49.34 0v12.24A5.76 5.76 0 0 1 53.92 10a6.9 6.9 0 0 1 0 13.77 5.83 5.83 0 0 1-4.81-2.51l-1.64 2.54h-.79V6.12zm10.69 10.77c0-3-1.35-5.36-4.27-5.36a4.17 4.17 0 0 0-3.8 3v4.77a4.15 4.15 0 0 0 3.8 3c2.92 0 4.27-2.4 4.27-5.41zm4 3.61c0-3.19 3.72-4.58 8-5.33 0-2.82-.38-3.94-2.52-3.94A2 2 0 0 0 64.78 13a1.3 1.3 0 0 1-2.6 0c0-1.8 2.37-3 4.77-3 3.64 0 5.14 1.54 5.14 5.1v5.7c0 .94.3 1.47.87 1.47a1.68 1.68 0 0 0 1-.57l.53.72a3.55 3.55 0 0 1-2.48 1.16 2.38 2.38 0 0 1-2.51-2.18c-1.83 1.65-3.19 2.25-4.69 2.25a3.13 3.13 0 0 1-3.37-2.88v-.27zm8-.34v-3.83c-3.57.83-5.18 2.07-5.18 3.72A1.79 1.79 0 0 0 65.89 22H66c.8 0 1.7-.3 3.43-1.84zm5.64 2.22c2.47 0 3-.64 3-4.39v-1.88c0-3.76-.48-4.36-3-4.36V11l5-.94a15.58 15.58 0 0 1 .64 2.7A4.88 4.88 0 0 1 84.64 10c2.06 0 3 1.39 3 2.32a1.53 1.53 0 0 1-1.27 1.75h-.23a1.37 1.37 0 0 1-1.31-1.36 1.12 1.12 0 0 0-1-1.23h-.24c-.86 0-2.89 1.39-2.89 4.39V18c0 3.75.45 4.39 3 4.39v.79h-8.6v-.8zm17.33-11.71a1.83 1.83 0 1 1-1.83-1.84 1.83 1.83 0 0 1 1.83 1.84zm-1.2 1.13l-.73-1h-.18v.26c0 .52.07.6.41.6v.14h-1.17v-.11c.35 0 .42-.08.42-.6v-.84c0-.52-.07-.61-.42-.61v-.1h1.13a.69.69 0 0 1 .78.59v.06a.65.65 0 0 1-.63.63l.33.38a1.15 1.15 0 0 0 .72.49 1.5 1.5 0 1 0-.09.11h-.57zm-.57-2.07h-.34v.91h.34a.46.46 0 1 0 0-.91z" fill="#74736f"/></svg><svg width="17" height="18" viewBox="-2 -2 17 18" id="maple-leaf" y="1446"><title>maple-leaf</title><path d="M5.73 13.52v-.44-.71-1.69-.27a.3.3 0 0 0-.22-.27h-.02c-.24 0-.22.06-.46.09l-.75.11-.83.12-.55.07.24-.79a.39.39 0 0 0-.14-.5L1.66 8.15 0 6.82l.63-.3a.21.21 0 0 0 .17-.3c0-.15-.07-.3-.12-.45L.27 4.26h.05L2 4.58a.27.27 0 0 0 .33-.2l.21-.74 1.4 1.54a.37.37 0 0 0 .27.14.19.19 0 0 0 .18-.12.39.39 0 0 0 0-.23c0-.19-.06-.38-.1-.56l-.22-1.28-.24-1.28V1.7l.78.41a.62.62 0 0 0 .23.07.29.29 0 0 0 .29-.13v-.06L6.23 0l1.11 2a.31.31 0 0 0 .26.19.44.44 0 0 0 .21 0L8 2.06l.65-.34v.15l-.37 2-.2 1.05a.63.63 0 0 0 0 .27.2.2 0 0 0 .28.16.42.42 0 0 0 .19-.12l1.39-1.59.08.29.14.48a.27.27 0 0 0 .33.2l1.7-.36v.05l-.51 1.85a.83.83 0 0 0 0 .18.17.17 0 0 0 .09.16l.11.05.59.28-3 2.41a.4.4 0 0 0-.14.46l.24.78h-.18l-1-.13-.84-.12c-.26 0-.21-.07-.47-.11h-.19a.16.16 0 0 0-.09 0 .3.3 0 0 0-.16.28v3.1h-.91z" fill="#ffdd30"/></svg><svg width="26" height="43" viewBox="-2 -2 26 43" id="nav-about" y="1464"><title>nav-about</title><path d="M16.99 1.08h-.07.1a.13.13 0 0 1 .13.13.12.12 0 0 1-.06.11h.18a.18.18 0 0 1 .18.18v.11a.17.17 0 0 1-.08.15l.38 1.75a.28.28 0 0 1 .28.28v1.09h.1a.24.24 0 0 0 .16-.14.69.69 0 0 0 .06-.3 1.64 1.64 0 0 0-.07-.46l-.76-2.7a.25.25 0 0 0-.13-.16h-.36zm-2.7 2.43h-.07a.28.28 0 0 0-.28.28v1.09h-.1a.26.26 0 0 1-.16-.14.69.69 0 0 1-.05-.3 1.5 1.5 0 0 1 .07-.46l.79-2.71a.29.29 0 0 1 .23-.11h.32-.1a.13.13 0 0 0-.13.13.13.13 0 0 0 .06.11h-.18a.18.18 0 0 0-.18.18v.03a.18.18 0 0 0 .1.16l-.32 1.74zm-.07.76v.61h.11l.13.09v-.25c0-.2-.21-.31-.31-.51zm3.32.74v-.23c0-.17.16-.28.27-.44v.55a.23.23 0 0 0-.13 0l-.08.07zm-4.68 34.5a2.33 2.33 0 0 1-2.32-2.33V18.9a8.87 8.87 0 0 1 1-4.25c1.51-2.92 2.73-4.88 2.9-9.26a1.4 1.4 0 0 1-.28-.15v.48a.14.14 0 0 1-.14.14.14.14 0 0 1-.14-.14v-.49h-.16a.53.53 0 0 1-.33-.28.92.92 0 0 1-.09-.42 2 2 0 0 1 .08-.54l.79-2.71a.27.27 0 0 1 0-.09.28.28 0 0 1 .05-.08.54.54 0 0 1 .45-.22h.27l-.02-.66A.19.19 0 0 1 15.1 0h1.82a.19.19 0 0 1 .18.23l-.13.58h.27a.55.55 0 0 1 .2 0h.07a.56.56 0 0 1 .26.33l.79 2.71a2.18 2.18 0 0 1 .08.54 1 1 0 0 1-.08.42.54.54 0 0 1-.33.28h-.17v.49a.14.14 0 0 1-.13.14.14.14 0 0 1-.14-.14V5.1h-.06l-.17.09c.17 4.39 1.39 6.36 2.9 9.28a8.88 8.88 0 0 1 1 4.25V37a2.33 2.33 0 0 1-2.28 2.51z" fill="#fff" fill-rule="evenodd"/><path fill="#fff" d="M5.494 24.34l1.723-8.854.775.15-1.722 8.855z"/><path d="M4.2 39.51c1.43 0 3.45-.55 3.49-1.13s.72-16.24.72-16.24a41.49 41.49 0 0 0-4.21-.25 41.26 41.26 0 0 0-4.21.25S.66 37.79.7 38.38s2.07 1.13 3.5 1.13" fill="#fff"/></svg><svg width="26" height="43" viewBox="-2 -2 26 43" id="nav-about-hover" y="1507"><title>nav-about-hover</title><path d="M16.99 1.08h-.07.1a.13.13 0 0 1 .13.13.12.12 0 0 1-.06.11h.18a.18.18 0 0 1 .18.18v.09a.17.17 0 0 1-.08.15l.37 1.75a.28.28 0 0 1 .28.28v1.09h.1a.24.24 0 0 0 .16-.14.69.69 0 0 0 .06-.3 1.64 1.64 0 0 0-.07-.46l-.75-2.68a.25.25 0 0 0-.13-.16h-.36zm-2.7 2.45h-.07a.28.28 0 0 0-.28.28V4.9h-.1a.26.26 0 0 1-.16-.14.69.69 0 0 1-.05-.3A1.5 1.5 0 0 1 13.7 4l.79-2.71a.29.29 0 0 1 .23-.11h.32-.1a.13.13 0 0 0-.13.13.13.13 0 0 0 .06.11h-.18a.18.18 0 0 0-.18.18v.09a.18.18 0 0 0 .1.16l-.38 1.75zm-.07.76v.61h.11l.13.08v-.25c0-.2-.21-.31-.31-.51zm3.32.74V4.8c0-.17.16-.28.27-.44v.55a.23.23 0 0 0-.13 0l-.08.07zm-4.68 34.39a2.33 2.33 0 0 1-2.32-2.33V18.81a8.87 8.87 0 0 1 1-4.25c1.51-2.92 2.73-4.88 2.9-9.26a1.4 1.4 0 0 1-.28-.15v.48a.14.14 0 0 1-.14.14.14.14 0 0 1-.14-.14v-.49h-.16a.53.53 0 0 1-.33-.28.92.92 0 0 1-.09-.42 2 2 0 0 1 .08-.54l.79-2.71a.27.27 0 0 1 0-.09.28.28 0 0 1 .05-.08.54.54 0 0 1 .45-.22h.27l-.02-.57A.19.19 0 0 1 15.1 0h1.82a.19.19 0 0 1 .18.23l-.13.58h.27a.55.55 0 0 1 .2 0h.07a.56.56 0 0 1 .26.33l.79 2.71a2.18 2.18 0 0 1 .08.54 1 1 0 0 1-.08.42.54.54 0 0 1-.33.28h-.17v.49a.14.14 0 0 1-.13.14.14.14 0 0 1-.14-.14V5.1h-.06l-.17.09c.17 4.39 1.39 6.36 2.9 9.28a8.88 8.88 0 0 1 1 4.25V37a2.33 2.33 0 0 1-2.28 2.42z" fill="#c3bfbd" fill-rule="evenodd"/><path fill="#ffdd30" d="M5.492 24.337l1.723-8.853.776.15-1.722 8.854z"/><path d="M4.2 39.42c1.43 0 3.45-.55 3.49-1.13s.72-16.24.72-16.24a41.49 41.49 0 0 0-4.21-.25 41.26 41.26 0 0 0-4.21.25S.66 37.7.7 38.29s2.07 1.13 3.5 1.13" fill="#c3bfbd"/></svg><svg width="40" height="25" viewBox="-2 -2 40 25" id="nav-contact" y="1550"><title>nav-contact</title><path d="M3.75 20.49a8.23 8.23 0 0 1-3.49-1.66 1 1 0 0 1-.26-.64c0-.64.65-1 1.31-1.31.68-.33 1.48-.62 2-.94.37-.21.6-.44.63-.6a.9.9 0 0 0 0-.2 4 4 0 0 0-.78-1.62 5.31 5.31 0 0 1-.77-2.85 5.43 5.43 0 0 1 0-.61 3 3 0 0 1 2.19-2.52 8.34 8.34 0 0 1 2.74-.43h.36v.46h-.33a7.93 7.93 0 0 0-2.58.41 2.55 2.55 0 0 0-1.88 2.13 5.14 5.14 0 0 0 0 .56 4.89 4.89 0 0 0 .72 2.61 4.15 4.15 0 0 1 .85 1.86 1.27 1.27 0 0 1 0 .31c-.17.59-.81.89-1.5 1.23a17.67 17.67 0 0 0-2 .94c-.33.21-.48.42-.47.57a.56.56 0 0 0 .16.35 8.1 8.1 0 0 0 3.26 1.5 18.59 18.59 0 0 0 4.73.78 4.3 4.3 0 0 0 1.4-.18c.34-.13.48-.28.51-.47a.43.43 0 0 0 0-.08.76.76 0 0 0-.39-.59 4.37 4.37 0 0 0-1.11-.54c-.9-.33-2-.58-2.76-.91-.49-.22-.93-.45-1-.94 0-.33.23-.6.62-.89a1.51 1.51 0 0 1 .9-.22c1.82 0 5.24 1.45 5.26 1.45l-.18.43s-.86-.36-1.92-.71a12 12 0 0 0-3.16-.71 1.09 1.09 0 0 0-.62.13c-.35.25-.43.44-.43.51s.08.21.36.37a6.42 6.42 0 0 0 1.13.44 17.5 17.5 0 0 1 2.79 1 1.44 1.44 0 0 1 .93 1.19.87.87 0 0 1 0 .16 1.12 1.12 0 0 1-.81.83 4.73 4.73 0 0 1-1.56.21 19 19 0 0 1-4.86-.8zM16.56 20.03v.64a.37.37 0 0 1-.37.37h-3a.37.37 0 0 1-.37-.37v-.64zM29.88 20.03v.64a.37.37 0 0 1-.37.37h-3a.37.37 0 0 1-.37-.37v-.64z" fill="#fff"/><path d="M25.75 3.9a.6.6 0 0 1-.58.34h-7.66a.6.6 0 0 1-.58-.34.8.8 0 0 1-.08-.32V3.1a11.63 11.63 0 0 0-1.34.33 5.26 5.26 0 0 0 .12 1.37 1 1 0 0 0 .6.5 2.16 2.16 0 0 0 .48.12h.11v.11a8 8 0 0 1 0 .82 7.6 7.6 0 0 1-1 4.07 17.73 17.73 0 0 1-2.93 3.4 3.37 3.37 0 0 0-.87.93 2.42 2.42 0 0 0-.25 1.08c-.06.57-.06 3.54-.06 3.54 0 .07 0 .35.54.37h18.19c.55 0 .51-.29.53-.37s0-3-.07-3.54a2.42 2.42 0 0 0-.25-1.08 3.34 3.34 0 0 0-.87-.93 17.71 17.71 0 0 1-2.94-3.4 7.61 7.61 0 0 1-1-4.07 8.11 8.11 0 0 1 0-.82v-.11h.11a2.19 2.19 0 0 0 .48-.12 1 1 0 0 0 .6-.5 4.91 4.91 0 0 0 .11-1.23 7.14 7.14 0 0 0-1.34-.4v.41a.77.77 0 0 1-.05.32z" fill="none"/><path d="M17.18 3.78a.33.33 0 0 0 .33.19h7.66a.33.33 0 0 0 .33-.19.49.49 0 0 0 .05-.2v-.47a26 26 0 0 0-4.4-.5 26 26 0 0 0-4 .43v.54a.54.54 0 0 0 .03.2z" fill="none"/><path d="M34.33 2.47a4.69 4.69 0 0 0-1.64-.74A30.86 30.86 0 0 0 21.16.02 30.87 30.87 0 0 0 9.63 1.73a4.67 4.67 0 0 0-1.64.74C5.91 4.11 6.05 7.83 6.05 7.83a2.64 2.64 0 0 0 .3 1.19c.45.74 2.44.59 4.09.37a7.19 7.19 0 0 0 3.95-1.71 1.08 1.08 0 0 0 .22-1.12c-.1-.37-.24-.81-.32-1.17a6 6 0 0 0-1.67-2 6.73 6.73 0 0 0-2-.87.14.14 0 0 1-.1-.16.14.14 0 0 1 .16-.1 7 7 0 0 1 2.13.92 6.06 6.06 0 0 1 1.49 1.6c0-.33.08-.7.75-1.12a1.57 1.57 0 0 1 .26-.13V3.4 1.79a1 1 0 0 1 .81-.52h.07a1 1 0 0 1 .82.43.77.77 0 0 1 .13.38v1a26 26 0 0 1 4-.43 26 26 0 0 1 4.4.5v-1.1a.75.75 0 0 1 .13-.38 1 1 0 0 1 .81-.43h.07a1.06 1.06 0 0 1 .81.52V3.7A1.18 1.18 0 0 1 28 4.76a6.25 6.25 0 0 1 1.63-1.84 7 7 0 0 1 2.13-.91.14.14 0 1 1 .06.27 6.86 6.86 0 0 0-2 .87 5.91 5.91 0 0 0-1.67 2s-.37 1-.49 1.43a1.13 1.13 0 0 0 .22 1.12 7.23 7.23 0 0 0 3.94 1.71c1.65.22 3.55.3 4.09-.37a2.31 2.31 0 0 0 .3-1.19s.18-3.75-1.88-5.38z" fill="#fff"/><ellipse cx="21.35" cy="10.03" rx="1.94" ry="1.78" fill="#fff"/><ellipse cx="23.63" cy="7.85" rx=".73" ry=".67" fill="#fff"/><ellipse cx="22.12" cy="7.01" rx=".73" ry=".67" fill="#fff"/><ellipse cx="20.37" cy="7.01" rx=".73" ry=".67" fill="#fff"/><ellipse cx="18.87" cy="7.85" rx=".73" ry=".67" fill="#fff"/><ellipse cx="17.99" cy="9.23" rx=".73" ry=".67" fill="#fff"/><ellipse cx="17.99" cy="10.83" rx=".73" ry=".67" fill="#fff"/><ellipse cx="24.7" cy="9.23" rx=".73" ry=".67" fill="#fff"/><ellipse cx="24.7" cy="10.83" rx=".73" ry=".67" fill="#fff"/><ellipse cx="18.87" cy="12.26" rx=".73" ry=".67" fill="#fff"/><ellipse cx="20.37" cy="13.06" rx=".73" ry=".67" fill="#fff"/><ellipse cx="22.12" cy="13.06" rx=".73" ry=".67" fill="#fff"/><ellipse cx="23.58" cy="12.21" rx=".73" ry=".67" fill="#fff"/><ellipse cx="21.35" cy="10.03" rx="4.47" ry="4.09" fill="none"/><path d="M29.8 13.83a17.71 17.71 0 0 1-2.94-3.4 7.61 7.61 0 0 1-1-4.07v-.67h-9v.67a7.6 7.6 0 0 1-1 4.07 17.73 17.73 0 0 1-2.93 3.4 3.55 3.55 0 0 0-.85.88h18.6a3.59 3.59 0 0 0-.88-.88zm-8.45.3a4.29 4.29 0 0 1-4.47-4.09 4.29 4.29 0 0 1 4.51-4.1 4.3 4.3 0 0 1 4.47 4.09 4.29 4.29 0 0 1-4.47 4.09zM26.45 5.28a1 1 0 0 0 .6-.5 4.91 4.91 0 0 0 .11-1.23v-.17-1.56a1 1 0 0 0-.15-.17.62.62 0 0 0-.41-.19.75.75 0 0 0-.61.3.45.45 0 0 0-.08.23v1.59a.77.77 0 0 1-.08.32.6.6 0 0 1-.58.34h-7.74a.6.6 0 0 1-.58-.34.8.8 0 0 1-.08-.32V2.02a.21.21 0 0 0 0-.06.5.5 0 0 0-.07-.17.75.75 0 0 0-.61-.3.62.62 0 0 0-.41.19 1.6 1.6 0 0 0-.15.17v1.56a5.26 5.26 0 0 0 .12 1.37 1 1 0 0 0 .6.5 2.22 2.22 0 0 0 .47.12h9.29a2.26 2.26 0 0 0 .36-.12zM30.92 15.83a2.9 2.9 0 0 0-.15-.85H11.92a2.83 2.83 0 0 0-.15.85c-.06.57-.06 3.54-.06 3.54 0 .07 0 .35.54.37h18.2c.55 0 .51-.29.53-.37s0-2.97-.06-3.54z" fill="#fff"/></svg><svg width="40" height="36" viewBox="-2 -2 40 36" id="nav-contact-hover" y="1575"><title>nav-contact-hover</title><path d="M3.75 31.16A8.23 8.23 0 0 1 .26 29.5a1 1 0 0 1-.26-.64c0-.64.65-1 1.31-1.31.68-.33 1.48-.62 2-.94.37-.21.6-.44.63-.6a.9.9 0 0 0 0-.2 4 4 0 0 0-.78-1.62 5.31 5.31 0 0 1-.77-2.85 5.43 5.43 0 0 1 0-.61 3 3 0 0 1 2.19-2.52 8.34 8.34 0 0 1 2.74-.43h.36v.46h-.33a7.93 7.93 0 0 0-2.58.41 2.55 2.55 0 0 0-1.88 2.13 5.14 5.14 0 0 0 0 .56 4.89 4.89 0 0 0 .78 2.62 4.15 4.15 0 0 1 .79 1.9 1.27 1.27 0 0 1 0 .31c-.17.59-.81.89-1.5 1.23a17.69 17.69 0 0 0-2 .94c-.33.21-.48.42-.47.57a.56.56 0 0 0 .16.35 8.1 8.1 0 0 0 3.26 1.5 18.59 18.59 0 0 0 4.73.78 4.3 4.3 0 0 0 1.4-.18c.34-.13.48-.28.51-.47a.43.43 0 0 0 0-.09.76.76 0 0 0-.39-.59 4.36 4.36 0 0 0-1.11-.54c-.9-.33-2-.58-2.76-.91-.49-.22-.93-.45-1-.94 0-.33.23-.6.62-.89a1.51 1.51 0 0 1 .9-.22c1.82 0 5.24 1.45 5.26 1.45l-.18.43s-.86-.36-1.92-.71a12 12 0 0 0-3.16-.71 1.09 1.09 0 0 0-.62.13c-.35.25-.43.44-.43.51s.08.21.36.37a6.42 6.42 0 0 0 1.13.44 17.49 17.49 0 0 1 2.79 1 1.44 1.44 0 0 1 .93 1.19.87.87 0 0 1 0 .16 1.12 1.12 0 0 1-.81.83 4.73 4.73 0 0 1-1.56.21 19 19 0 0 1-4.86-.8zM16.56 30.7v.64a.37.37 0 0 1-.37.37h-3a.37.37 0 0 1-.37-.37v-.64zM29.88 30.7v.64a.37.37 0 0 1-.37.37h-3a.37.37 0 0 1-.37-.37v-.64z" fill="#fff"/><path d="M25.75 14.58a.6.6 0 0 1-.58.34h-7.66a.6.6 0 0 1-.58-.34.8.8 0 0 1-.08-.32v-.48a11.64 11.64 0 0 0-1.34.33 5.26 5.26 0 0 0 .12 1.37 1 1 0 0 0 .6.5 2.16 2.16 0 0 0 .48.12h.11v.11a8 8 0 0 1 0 .82 7.6 7.6 0 0 1-1 4.07 17.73 17.73 0 0 1-2.93 3.4 3.37 3.37 0 0 0-.87.93 2.42 2.42 0 0 0-.25 1.08c-.06.57-.06 3.54-.06 3.54 0 .07 0 .35.54.37h18.19c.55 0 .51-.29.53-.37s0-3-.07-3.54a2.42 2.42 0 0 0-.25-1.08 3.34 3.34 0 0 0-.87-.93 17.7 17.7 0 0 1-2.94-3.4 7.61 7.61 0 0 1-1-4.07 8.11 8.11 0 0 1 0-.82v-.11h.11a2.19 2.19 0 0 0 .48-.12 1 1 0 0 0 .6-.5 4.91 4.91 0 0 0 .11-1.23 7.15 7.15 0 0 0-1.34-.4v.41a.77.77 0 0 1-.05.32z" fill="none"/><path d="M17.18 14.45a.33.33 0 0 0 .33.19h7.66a.33.33 0 0 0 .33-.19.49.49 0 0 0 .05-.2v-.47a26 26 0 0 0-4.4-.5 25.94 25.94 0 0 0-4 .43v.54a.5.5 0 0 0 .03.2z" fill="none"/><path d="M34.33 13.14a4.69 4.69 0 0 0-1.64-.74 30.86 30.86 0 0 0-11.53-1.71A30.88 30.88 0 0 0 9.63 12.4a4.67 4.67 0 0 0-1.64.74c-2.08 1.64-1.94 5.36-1.94 5.36a2.64 2.64 0 0 0 .3 1.19c.45.74 2.44.59 4.09.37a7.19 7.19 0 0 0 3.95-1.71 1.08 1.08 0 0 0 .22-1.12c-.1-.37-.24-.81-.32-1.17a6 6 0 0 0-1.67-2 6.73 6.73 0 0 0-2-.87.14.14 0 0 1-.1-.16.14.14 0 0 1 .16-.1 7 7 0 0 1 2.13.92 6.06 6.06 0 0 1 1.49 1.6c0-.33.08-.7.75-1.12a1.55 1.55 0 0 1 .26-.13v-.13-1.61a1 1 0 0 1 .81-.52h.07a1 1 0 0 1 .82.43.77.77 0 0 1 .13.38v1a25.94 25.94 0 0 1 4-.43 26 26 0 0 1 4.4.5v-1.1a.75.75 0 0 1 .13-.38 1 1 0 0 1 .81-.43h.07a1.06 1.06 0 0 1 .81.52V14.37a1.18 1.18 0 0 1 .64 1.06 6.25 6.25 0 0 1 1.63-1.84 7 7 0 0 1 2.13-.92.14.14 0 0 1 .06.27 6.86 6.86 0 0 0-2 .87 5.91 5.91 0 0 0-1.67 2s-.37 1-.49 1.43a1.13 1.13 0 0 0 .22 1.12 7.23 7.23 0 0 0 3.94 1.71c1.65.22 3.55.3 4.09-.37a2.31 2.31 0 0 0 .3-1.19s.18-3.73-1.88-5.37z" fill="#fff"/><ellipse cx="21.35" cy="20.7" rx="1.94" ry="1.78" fill="#fff"/><ellipse cx="23.63" cy="18.52" rx=".73" ry=".67" fill="#fff"/><ellipse cx="22.12" cy="17.68" rx=".73" ry=".67" fill="#fff"/><ellipse cx="20.37" cy="17.68" rx=".73" ry=".67" fill="#fff"/><ellipse cx="18.87" cy="18.52" rx=".73" ry=".67" fill="#fff"/><ellipse cx="17.99" cy="19.9" rx=".73" ry=".67" fill="#fff"/><ellipse cx="17.99" cy="21.5" rx=".73" ry=".67" fill="#fff"/><ellipse cx="24.7" cy="19.9" rx=".73" ry=".67" fill="#fff"/><ellipse cx="24.7" cy="21.5" rx=".73" ry=".67" fill="#fff"/><ellipse cx="18.87" cy="22.93" rx=".73" ry=".67" fill="#fff"/><ellipse cx="20.37" cy="23.73" rx=".73" ry=".67" fill="#fff"/><ellipse cx="22.12" cy="23.73" rx=".73" ry=".67" fill="#fff"/><ellipse cx="23.58" cy="22.88" rx=".73" ry=".67" fill="#fff"/><ellipse cx="21.35" cy="20.7" rx="4.47" ry="4.09" fill="none"/><path d="M29.8 24.5a17.7 17.7 0 0 1-2.94-3.4 7.61 7.61 0 0 1-1-4.07v-.67h-9v.67a7.6 7.6 0 0 1-1 4.07 17.73 17.73 0 0 1-2.93 3.4 3.55 3.55 0 0 0-.85.88h18.6a3.59 3.59 0 0 0-.88-.88zm-8.45.3a4.29 4.29 0 0 1-4.47-4.09 4.29 4.29 0 0 1 4.51-4.1 4.3 4.3 0 0 1 4.47 4.09 4.29 4.29 0 0 1-4.47 4.1zM26.45 15.97a1 1 0 0 0 .6-.5 4.91 4.91 0 0 0 .11-1.23v-.17-1.56a1 1 0 0 0-.15-.17.62.62 0 0 0-.41-.19.75.75 0 0 0-.61.3.45.45 0 0 0-.08.23v1.58a.77.77 0 0 1-.08.32.6.6 0 0 1-.58.34h-7.74a.6.6 0 0 1-.58-.34.8.8 0 0 1-.08-.32v-1.57a.21.21 0 0 0 0-.06.5.5 0 0 0-.07-.17.75.75 0 0 0-.61-.3.62.62 0 0 0-.41.19 1.6 1.6 0 0 0-.15.17v1.56a5.26 5.26 0 0 0 .12 1.37 1 1 0 0 0 .6.5 2.21 2.21 0 0 0 .47.12h9.29a2.27 2.27 0 0 0 .36-.1zM30.92 26.51a2.9 2.9 0 0 0-.15-.85H11.92a2.83 2.83 0 0 0-.15.85c-.06.57-.06 3.54-.06 3.54 0 .07 0 .35.54.37h18.2c.55 0 .51-.29.53-.37s0-2.97-.06-3.54z" fill="#fff"/><path d="M21.95 0v.36l-.39 4.63h-.7l-.4-4.63V0zM15.52 1.19l.13.34 1.09 3.94-.66.24-1.83-3.67-.12-.34zM10.57 4.14l.23.28 1.65 2.54-.54.45-2.25-2-.27-.32zM28.18 1.69l-.12.34-1.83 3.67-.66-.24 1.09-3.94.13-.34zM32.88 5.09l-.23.28-2.25 2-.54-.45 1.65-2.54.23-.28z" fill="#ffdb00"/></svg><svg width="28" height="21" viewBox="-2 -2 28 21" id="nav-gallery" y="1611"><title>nav-gallery</title><path fill="#fff" d="M0 6.79h23.5v10.3H0zM19.06 1.3h2.87v1.69h-2.87z"/><path fill="#fff" fill-rule="evenodd" d="M17.05 3L15.1 0H8.62L6.67 3h10.38zM21.93 3.65H0v2.34h23.5V3.65h-1.57z"/><path fill="#fff" d="M2.35 1.57h2.14V3H2.35z"/><circle cx="11.85" cy="9.37" r="6.26" fill="#fff" stroke="#42413d" stroke-miterlimit="10" stroke-width=".916"/><circle cx="11.85" cy="9.37" r="4.2" fill="#42413d"/><circle cx="9.93" cy="1.57" r=".87" fill="#42413d"/><circle cx="13.89" cy="1.57" r=".87" fill="#42413d"/></svg><svg width="28" height="21" viewBox="-2 -2 28 21" id="nav-gallery-hover" y="1632"><title>nav-gallery-hover</title><path fill="#c3bfbd" d="M0 6.79h23.5v10.3H0zM19.06 1.3h2.87v1.69h-2.87z"/><path fill="#c3bfbd" fill-rule="evenodd" d="M17.05 3L15.1 0H8.62L6.67 3h10.38z"/><path fill="#ffdb00" fill-rule="evenodd" d="M21.93 3.65H0v2.34h23.5V3.65h-1.57z"/><path fill="#c3bfbd" d="M2.35 1.57h2.14V3H2.35z"/><circle cx="11.85" cy="9.37" r="6.26" fill="#fff" stroke="#42413d" stroke-miterlimit="10" stroke-width=".916"/><circle cx="9.93" cy="1.57" r=".87" fill="#42413d"/><circle cx="13.89" cy="1.57" r=".87" fill="#42413d"/></svg><svg width="38" height="134" viewBox="-2 -2 38 134" id="nav-join" y="1653"><title>nav-join</title><path d="M31.49 119.64c-.64-.45-3.17-1.6-3.17-1.6l-.3.11a5.23 5.23 0 0 1-.86-.22c-.75-.23-1.57-1.6-2.21-2.87s-.63-3.43-.63-6.3a29.51 29.51 0 0 0-1-6.78A7.07 7.07 0 0 0 22 99.42V0h-1.17v97.18l-.27 2.19a11.28 11.28 0 0 0-1 1.86 6.91 6.91 0 0 0-.58 3.52s-.3 0-.3.24c0 .56.33 3.38.33 3.38a.82.82 0 0 0-.06.28.23.23 0 0 0 .14.2l.34 1.9c.06.33.25.28.25.28l.47 3.19h-.78c-.65 0-.48.39-.28.61a1.44 1.44 0 0 1 .14 1.23c-.17.31.56.22.56.22-.33 1.34-2.86 2-2.86 2l-.39.28c-3.36.67-16.13.89-16.13.89a27.51 27.51 0 0 0-.22 8.16c2.84.3 14.75 1.12 16.62 1.3-.08 0 .19.26.19.26a19.56 19.56 0 0 0 6 .86 18.32 18.32 0 0 0 6.84-1.56c1.34-.55 4.18-2.08 4.18-4.73a4.8 4.8 0 0 0-2.54-4.17" fill="#ffdd30"/></svg><svg width="40" height="26" viewBox="-2 -2 40 26" id="nav-locations" y="1787"><title>nav-locations</title><path fill="#fff" d="M36.34 6.46H0L.65 0h35.04l.65 6.46zM3.36 7.7h29.81v14.79H3.36z"/><path fill="#42413c" d="M21.85 9.41h8.27v12.3h-8.27zM6.16 9.41h13.67v12.14H6.16z"/><path d="M15.5 17.52a6 6 0 0 0-.7-.3h-.17c-.15 0-.31-.32-.44-.58a3.28 3.28 0 0 1-.13-1.26 6 6 0 0 0-.19-1.36 1.43 1.43 0 0 0-.28-.58h-.28s0 .09-.2.37c-.56.65-.13 3-.13 3a.69.69 0 0 1-.39.4l-.08.06c-.67.13-3.23.18-3.23.18a5.54 5.54 0 0 0 0 1.64c.57.06 3 .22 3.33.26v.05a3.94 3.94 0 0 0 1.21.17 3.68 3.68 0 0 0 1.37-.26c.27-.11.84-.42.84-.95a1 1 0 0 0-.53-.84z" fill="#fff"/><path fill="none" stroke="#fff" stroke-width=".765" d="M13.39 17.28V9.31"/></svg><svg width="40" height="26" viewBox="-2 -2 40 26" id="nav-locations-hover" y="1813"><title>nav-locations-hover</title><path fill="#fff" d="M36.34 6.46H0L.65 0h35.03l.66 6.46zM3.36 7.7h29.81v14.79H3.36z"/><path fill="#42413c" d="M21.85 9.41h8.27v12.3h-8.27zM6.16 9.41h13.67v12.14H6.16z"/><path d="M15.5 17.53a6 6 0 0 0-.7-.3h-.17c-.15 0-.31-.32-.44-.58a3.25 3.25 0 0 1-.13-1.3 5.91 5.91 0 0 0-.19-1.36 1.42 1.42 0 0 0-.28-.51h-.28s0 .09-.2.37c-.56.65-.13 3-.13 3a.69.69 0 0 1-.39.4l-.08.06c-.67.13-3.23.18-3.23.18a5.5 5.5 0 0 0 0 1.64c.57.06 3 .22 3.33.26v.05a4 4 0 0 0 1.21.17 3.67 3.67 0 0 0 1.37-.26c.27-.11.84-.42.84-.95a1 1 0 0 0-.53-.87z" fill="#ffdd30"/><path fill="none" stroke="#ffdd30" stroke-width=".765" d="M13.39 17.28V9.31"/></svg><svg width="21" height="32" viewBox="-2 -2 21 32" id="nav-memberships" y="1839"><title>nav-memberships</title><path d="M1.13.42c1.21-.64 5.32-.48 6.19 0a60.37 60.37 0 0 1 .06 6.64 18.28 18.28 0 0 1-1.87 7.14 7.38 7.38 0 0 0-.86 3.54c0 .59-.12 4.2-.14 5.55a11.62 11.62 0 0 0 .22 2.82 7.25 7.25 0 0 0 2.41.95c.57.16 1 .3.79.59s-2.4.64-4.12.66a10.13 10.13 0 0 1-3.69-.57c-.36-.24.2-.52.59-.61a13.83 13.83 0 0 0 2.65-1 10.23 10.23 0 0 0 .24-2.88v-5.5a7.46 7.46 0 0 0-.61-3.59 18.65 18.65 0 0 1-1.85-7.1C1 5.17 1.02 2.07 1.13.42zM10.31.42c1.21-.64 5.32-.48 6.19 0a59.87 59.87 0 0 1 .06 6.64 18.28 18.28 0 0 1-1.91 7.15 7.35 7.35 0 0 0-.8 3.53c0 .59-.12 4.2-.14 5.55a11.62 11.62 0 0 0 .22 2.82 7.24 7.24 0 0 0 2.41.95c.57.16 1 .3.79.59s-2.4.64-4.13.66a10.13 10.13 0 0 1-3.7-.57c-.36-.24.2-.52.59-.61a13.83 13.83 0 0 0 2.65-1 10.22 10.22 0 0 0 .24-2.88v-5.5a7.44 7.44 0 0 0-.61-3.59 18.65 18.65 0 0 1-1.85-7.1c-.14-1.89-.12-4.99-.01-6.64z" fill="#fff"/></svg><svg width="21" height="32" viewBox="-2 -2 21 32" id="nav-memberships-hover" y="1871"><title>nav-memberships-hover</title><path d="M1.13.42c1.21-.64 5.32-.48 6.19 0a60.37 60.37 0 0 1 .06 6.64 18.28 18.28 0 0 1-1.87 7.14 7.38 7.38 0 0 0-.84 3.5c0 .59-.12 4.2-.14 5.55a11.62 11.62 0 0 0 .22 2.82 7.25 7.25 0 0 0 2.41.95c.57.16 1 .3.79.59s-2.4.64-4.12.66a10.13 10.13 0 0 1-3.72-.57c-.36-.24.2-.52.59-.61a13.83 13.83 0 0 0 2.65-1 10.23 10.23 0 0 0 .24-2.88v-5.5a7.46 7.46 0 0 0-.61-3.59 18.65 18.65 0 0 1-1.85-7.1c-.13-1.85-.11-4.95 0-6.6zM10.31.42c1.21-.64 5.32-.48 6.19 0a59.87 59.87 0 0 1 .06 6.64 18.28 18.28 0 0 1-1.91 7.16 7.35 7.35 0 0 0-.84 3.5c0 .59-.12 4.2-.14 5.55a11.62 11.62 0 0 0 .22 2.82 7.24 7.24 0 0 0 2.41.95c.57.16 1 .3.79.59s-2.4.64-4.13.66a10.13 10.13 0 0 1-3.72-.57c-.36-.24.2-.52.59-.61a13.83 13.83 0 0 0 2.65-1 10.22 10.22 0 0 0 .24-2.88v-5.5a7.44 7.44 0 0 0-.61-3.59 18.65 18.65 0 0 1-1.85-7.1c-.08-1.87-.06-4.97.05-6.62z" fill="#ffdd30"/></svg><svg width="14" height="45" viewBox="-2 -2 14 45" id="nav-services" y="1903"><title>nav-services</title><path d="M3.69 3.06a.52.52 0 0 0-.52.52v.09a.22.22 0 0 0-.22.23v.85a.22.22 0 0 0 .18.25v6.3A3.24 3.24 0 0 1 1.9 14 5 5 0 0 0 0 18v22.18a1 1 0 0 0 1 1h8a1 1 0 0 0 1-1V17.96a5 5 0 0 0-1.9-4 3.25 3.25 0 0 1-1.27-2.69V5H7a.23.23 0 0 0 .22-.23v-.88A.23.23 0 0 0 7 3.66v-.09a.52.52 0 0 0-.52-.52h-.14a.29.29 0 0 0 0-.09V.33A.33.33 0 0 0 6 0H4a.33.33 0 0 0-.33.33V3a.35.35 0 0 0 0 .09z" fill="#fff" fill-rule="evenodd"/></svg><svg width="14" height="52" viewBox="-2 -2 14 52" id="nav-services-hover" y="1948"><title>nav-services-hover</title><path d="M6.36 9.42a.28.28 0 0 1 0 .09h.06a.52.52 0 0 1 .52.52v.09a.23.23 0 0 1 .22.23v.85a.23.23 0 0 1-.22.23v6.3a3.25 3.25 0 0 0 1.27 2.69 5 5 0 0 1 1.9 4v22.22a1 1 0 0 1-1 1H1a1 1 0 0 1-1-1V24.42a5 5 0 0 1 1.9-4 3.24 3.24 0 0 0 1.27-2.69v-6.3a.22.22 0 0 1-.22-.23v-.85a.22.22 0 0 1 .22-.23v-.09a.52.52 0 0 1 .52-.52h.06a.35.35 0 0 1 0-.09z" fill="#c0bcba" fill-rule="evenodd"/><path d="M6.3 3.7V.32A.32.32 0 0 0 6 0H4.1a.32.32 0 0 0-.31.32V3.7z" fill="#ffdb00" fill-rule="evenodd"/></svg><svg width="19" height="23" viewBox="-2 -2 19 23" id="nav-shop" y="2000"><title>nav-shop</title><path fill="#fff" d="M0 5.62h15.03v3.59H0z"/><path fill="#fff" d="M.89 8.51h13.24v10.38H.89z"/><path d="M2.22 1.63C.71 4.54 7.53 5.99 7.6 5.97c.09-.5-6-2.3-3.66-5.73z" fill="#c3bfbd"/><path d="M7.59 5.97c.06.18-.08-7.41-3.66-5.73-.43.37-1.6 1.26-1.72 1.39 3.76-2.71 5.03 4.3 5.38 4.34z" fill="#c3bfbd"/><path d="M13.29 2.38c1.07 3.09-5.89 3.54-6 3.51 0-.51 6.79-1.74 4.45-5.13z" fill="#c3bfbd"/><path d="M7.34 5.89c-.08.17 1.16-7.32 4.45-5.13.37.43 1.4 1.47 1.5 1.62-3.17-3-5.6 3.52-5.95 3.51z" fill="#c3bfbd"/><path fill="#c3bfbd" d="M6.98 5.43H8V18.9H6.98z"/></svg><svg width="19" height="26" viewBox="-2 -2 19 26" id="nav-shop-hover" y="2023"><title>nav-shop-hover</title><path fill="#ffdd30" d="M0 5.62h15.03v3.59H0zM.89 12.22h13.24v9.68H.89z"/><path d="M2.22 1.63C.71 4.54 7.53 5.99 7.6 5.97c.09-.5-6-2.3-3.66-5.73z" fill="#c3bfbd"/><path d="M7.59 5.97c.06.18-.08-7.41-3.66-5.73-.44.37-1.6 1.26-1.72 1.39 3.76-2.71 5.03 4.3 5.38 4.34z" fill="#c3bfbd"/><path d="M13.29 2.38c1.07 3.09-5.89 3.54-6 3.51 0-.51 6.79-1.74 4.45-5.13z" fill="#c3bfbd"/><path d="M7.34 5.89c-.08.17 1.16-7.32 4.45-5.13.38.43 1.4 1.47 1.5 1.62-3.17-3-5.6 3.52-5.95 3.51z" fill="#c3bfbd"/><path fill="#c3bfbd" d="M6.98 5.43H8v3.79H6.98zM6.98 12.22H8v9.69H6.98z"/></svg><svg width="27" height="45" viewBox="-2 -2 27 45" id="nav-styles" y="2049"><title>nav-styles</title><path d="M13.81 5.68c.07-.19-.34-.3-.49-.41a1 1 0 0 1-.26-.4 1.1 1.1 0 0 0 .31-.4 2.24 2.24 0 0 0-.45-1.79c-.31-.42 0-1.07-.55-1.07a1.76 1.76 0 0 0-.57.11 9 9 0 0 1-.32-1.11c0-.32 0-.25-.35-.14-.9.33-1.55 1.9-2.36 2.51a.32.32 0 0 0-.17 0c-.71.27-.72 1.25-.7 1.86-1.91.6-2.86 3-3.29 6.17H4.5C3.87 6.66 2.43.89 2.43.01c0-.07-.19 2.4-.2 3.29 0 2.91.37 3.36 1.24 5.46a9 9 0 0 1 .59 2.28H2.67c-.18 0-.33.21-.33.46a.44.44 0 0 0 .27.44v3.33c-2.6 0-2.6 3.64-2.6 3.64v22.1h9.61V18.92s0-3.64-2.6-3.64v-3.33a.44.44 0 0 0 .27-.44c0-.25-.15-.46-.33-.46H5.19c.39-3 1.24-5.11 2.92-5.6.23.23.64.7 1.09.7a1.51 1.51 0 0 0 .66-.09.09.09 0 0 0 .07-.08l2.09.06c.52-.01 1.56.21 1.79-.36zM22.77 20.33a.63.63 0 0 0-.46 1.07l-1.46 2.12a66 66 0 0 0-8.62.21c.67 1 3.66 4.93 4.28 5.69a6.3 6.3 0 0 0 .48 1 34.84 34.84 0 0 1 0 6.49 4 4 0 0 1-.59 1.74 6.61 6.61 0 0 0-1.64.38s-.83.19-.86.4c-.07.5 2.07.67 3.45.69 1.55 0 3.64-.33 3.64-.74s-.79-.43-1.26-.5a11.56 11.56 0 0 1-1.33-.29c-.12-.12-.22-.43-.5-1.69a35.1 35.1 0 0 1 .24-6.52 6.29 6.29 0 0 0 .48-1c.59-.66 3.52-4.78 4.09-5.74-.43-.05-1-.09-1.54-.12l1.36-2a.66.66 0 0 0 .23 0 .64.64 0 0 0 0-1.28z" fill="#fff" fill-rule="evenodd"/></svg><svg width="27" height="45" viewBox="-2 -2 27 45" id="nav-styles-hover" y="2094"><title>nav-styles-hover</title><path d="M5.16 11c.39-3 1.24-5.1 2.91-5.59.23.23.63.69 1.08.69A1.53 1.53 0 0 0 9.8 6a.1.1 0 0 0 .06-.08L12 6c.52 0 1.56.24 1.78-.34.07-.19-.34-.29-.48-.41a.93.93 0 0 1-.3-.4 1.1 1.1 0 0 0 .31-.4 2.22 2.22 0 0 0-.45-1.78c-.31-.42 0-1.07-.55-1.07a1.73 1.73 0 0 0-.57.11 8.84 8.84 0 0 1-.31-1.1c0-.32 0-.25-.35-.13C10.17.8 9.52 2.37 8.71 3a.33.33 0 0 0-.17 0c-.7.27-.71 1.25-.69 1.85-1.9.6-2.85 3-3.27 6.14h-.11C3.84 6.66 2.41.91 2.41 0c0-.07-.19 2.39-.2 3.28a10.08 10.08 0 0 0 1.24 5.43A9 9 0 0 1 4 11z" fill="#c3bfbd"/><path d="M3.79 11H2.65c-.18 0-.33.21-.33.46a.44.44 0 0 0 .27.44v3.32C0 15.21 0 18.82 0 18.82v22h9.56v-22s0-3.62-2.59-3.62v-3.31a.44.44 0 0 0 .27-.44c0-.26-.15-.46-.33-.46H5.42M21.41 23.44c.45 0 .85.06 1.2.1-.57.95-3.48 5-4.07 5.71a6.36 6.36 0 0 1-.47 1 35 35 0 0 0-.24 6.49c.28 1.25.38 1.56.5 1.68a11.94 11.94 0 0 0 1.33.29c.47.07 1.26.17 1.26.5s-2.08.76-3.62.73c-1.38 0-3.51-.19-3.44-.69 0-.21.85-.4.85-.4a6.53 6.53 0 0 1 1.64-.38 4 4 0 0 0 .59-1.73 34.81 34.81 0 0 0 0-6.46 6.14 6.14 0 0 1-.47-1c-.62-.76-3.6-4.67-4.26-5.66a65.06 65.06 0 0 1 8.18-.23z" fill="#c3bfbd"/><path d="M14.43 23.47l-1.35-2a.61.61 0 0 1-.23 0 .64.64 0 1 1 .46-.21l1.45 2.11z" fill="#ffdb00"/></svg><svg width="39" height="25" viewBox="-2 -2 39 25" id="nav-videos" y="2139"><title>nav-videos</title><path d="M1.86 9.67v10.89a.22.22 0 0 0 .23.22h31.39a.22.22 0 0 0 .22-.22V9.67zM2.09 0h31.39a.23.23 0 0 1 .23.23v6.61a.23.23 0 0 1-.23.23H2.09a.22.22 0 0 1-.22-.22V.22A.22.22 0 0 1 2.09 0z" fill="#fff"/><path fill="#42413d" d="M4.34 6.23H3.01l3-5.2h1.33l-3 5.2zM1.33 6.23H0l3-5.2h1.33l-3 5.2zM7.14 6.23H5.81l3.01-5.2h1.33l-3.01 5.2zM9.95 6.23H8.62l3-5.2h1.34l-3.01 5.2zM12.76 6.23h-1.33l3-5.2h1.33l-3 5.2zM15.56 6.23h-1.33l3-5.2h1.34l-3.01 5.2zM18.37 6.23h-1.33l3-5.2h1.33l-3 5.2zM21.18 6.23h-1.34l3.01-5.2h1.33l-3 5.2zM23.98 6.23h-1.33l3-5.2h1.33l-3 5.2zM26.79 6.23h-1.33l3-5.2h1.33l-3 5.2zM29.59 6.23h-1.33l3.01-5.2h1.33l-3.01 5.2zM32.4 6.23h-1.33l3-5.2h1.33l-3 5.2z"/></svg><svg width="38" height="31" viewBox="-2 -2 38 31" id="nav-videos-hover" y="2164"><title>nav-videos-hover</title><path d="M1.95 15.8v10.91a.22.22 0 0 0 .23.22h31.39a.22.22 0 0 0 .22-.22V15.8z" fill="#fff"/><path d="M.807 6.218L31.587 0a.23.23 0 0 1 .27.18l1.31 6.48a.23.23 0 0 1-.18.27l-30.77 6.216a.23.23 0 0 1-.27-.18l-1.31-6.48a.22.22 0 0 1 .172-.26z" fill="#ffdd30"/><path fill="#42413d" d="M4.25 11.88l-1.3.26 1.91-5.69 1.31-.26-1.92 5.69zM1.31 12.47L0 12.74l1.91-5.7 1.31-.26-1.91 5.69zM7 11.32l-1.3.27 1.91-5.7 1.31-.26L7 11.32zM9.76 10.77l-1.31.26 1.91-5.69 1.31-.26-1.91 5.69zM12.51 10.21l-1.31.27 1.91-5.7 1.31-.26-1.91 5.69zM15.26 9.66l-1.31.26 1.91-5.69 1.31-.27-1.91 5.7zM18.01 9.1l-1.31.27 1.91-5.7 1.31-.26-1.91 5.69zM20.76 8.54l-1.31.27 1.91-5.69 1.31-.27-1.91 5.69zM23.51 7.99l-1.31.26 1.91-5.69 1.31-.26-1.91 5.69zM26.26 7.43l-1.31.27L26.87 2l1.3-.26-1.91 5.69zM29.01 6.88l-1.31.26 1.92-5.69 1.3-.26-1.91 5.69zM31.76 6.32l-1.31.27 1.92-5.7 1.3-.26-1.91 5.69z"/></svg><svg width="13" height="19" viewBox="-2 -2 13 19" id="pac-pin" y="2195"><title>pac-pin</title><path d="M4.6 14.73c-.15-.52-.29-1.06-.46-1.59A15.15 15.15 0 0 0 2.59 9.9c-.44-.7-.9-1.39-1.34-2.1a13.36 13.36 0 0 1-.94-1.71A4 4 0 0 1 0 4.41 4.4 4.4 0 0 1 1.7 1 4.33 4.33 0 0 1 3.81.06 4.59 4.59 0 0 1 7 .7a4.33 4.33 0 0 1 2.09 3.06 4.29 4.29 0 0 1-.4 2.66 24.78 24.78 0 0 1-1.57 2.64 20.77 20.77 0 0 0-1.56 2.74 13 13 0 0 0-.95 2.87zM4.57 6A1.61 1.61 0 1 0 3 4.41 1.6 1.6 0 0 0 4.57 6z" fill="#ffdd30" fill-rule="evenodd"/></svg><svg width="18" height="18" viewBox="-2 -2 18 18" id="play-gray" y="2214"><title>play-gray</title><path d="M5.73 10.49l4.47-3.27-4.47-3.27v6.54zm1.38 3.71a7.1 7.1 0 1 1 7.09-7.11 7.11 7.11 0 0 1-7.09 7.1zm0-13.19a6.1 6.1 0 1 0 6.09 6.1 6.1 6.1 0 0 0-6.09-6.1z" fill="#a1a19e"/></svg><svg width="31" height="31" viewBox="-2 -2 31 31" id="play-white" y="2232"><title>play-white</title><path d="M10.36 20.5v-14l8.93 7-8.93 7M13.48 0a13.48 13.48 0 1 0 13.53 13.49A13.48 13.48 0 0 0 13.48 0" fill="#fff"/></svg><svg width="120" height="120" viewBox="-2 -2 120 120" id="play-white-alt" y="2263"><title>play-white-alt</title><circle cx="58" cy="58" r="56" fill="none" stroke="#fff" stroke-miterlimit="10" stroke-width="4"/><path d="M40.5 91.5l43-33.5-43-33.5v67z" fill="#fff"/></svg><svg width="18" height="18" viewBox="-2 -2 18 18" id="play-yellow" y="2383"><title>play-yellow</title><path d="M5.72 10.49l4.47-3.27-4.47-3.27v6.54zM7.1 14.2a7.1 7.1 0 1 1 7.1-7.1 7.1 7.1 0 0 1-7.1 7.1zM7.1 1a6.1 6.1 0 1 0 6.1 6.1A6.1 6.1 0 0 0 7.1 1z" fill="#fcdb30"/></svg><svg width="26" height="26" viewBox="-2 -2 26 26" id="play-yellow-alt" y="2401"><title>play-yellow</title><circle cx="11" cy="11" r="10.5" fill="none" stroke="#9c9c9a" stroke-miterlimit="10"/><path d="M8.48 15.53l6-4.53-6-4.53v9.05z" fill="#feda00"/></svg><svg width="184" height="35" viewBox="-2 -2 184 35" id="quickview-ribbon" y="2427"><title>Group</title><g fill="none" fill-rule="evenodd"><path fill="#5A5855" d="M31.68 0H0l4.974 12.086L0 24.17h31.68V0"/><path fill="#383834" d="M16 4.875L31.655 0l.025 9.9L16 4.875"/><path fill="#5A5855" d="M148 0h31.68l-4.974 12.086 4.974 12.084H148V0"/><path fill="#383834" d="M165.183 4.875L148.027 0 148 9.9l17.183-5.025"/><path fill="#7E7D7A" d="M16 31h148V5H16z"/></g></svg><svg width="18" height="18" viewBox="-2 -2 18 18" id="radio" y="2462"><title>Group</title><g transform="translate(1 1)" fill="none" fill-rule="evenodd"><circle fill="#FEDE42" cx="6" cy="6" r="3"/><circle stroke="#6B6A66" cx="6" cy="6" r="6"/></g></svg><svg width="18" height="18" viewBox="-2 -2 18 18" id="radio-off" y="2480"><title>Group</title><g transform="translate(1 1)" fill="none" fill-rule="evenodd"><circle fill="#57554F" cx="6" cy="6" r="3"/><circle stroke="#6B6A66" cx="6" cy="6" r="6"/></g></svg><svg width="14" height="13" viewBox="-2 -2 14 13" id="search-gray" y="2498"><title>search-gray</title><path d="M3.91 7.82a3.91 3.91 0 1 1 3.91-3.91 3.91 3.91 0 0 1-3.91 3.91zm0-6.57a2.66 2.66 0 1 0 2.66 2.66 2.66 2.66 0 0 0-2.66-2.66zm5.7 8a.64.64 0 0 1-.39-.14L6.16 6.59a.634.634 0 0 1 .78-1L10 8.09a.63.63 0 0 1-.39 1.11z" fill="#7e7b78"/></svg><svg width="19" height="17" viewBox="-2 -2 19 17" id="search-yellow" y="2511"><title>search-yellow</title><path d="M5.73 11.45a5.72 5.72 0 1 1 5.72-5.73 5.73 5.73 0 0 1-5.72 5.73zm0-9.45a3.72 3.72 0 1 0 3.72 3.73A3.73 3.73 0 0 0 5.73 2zm8.2 11.43a1 1 0 0 1-.63-.22L8.9 9.65a1 1 0 0 1 1.25-1.55l4.41 3.56a1 1 0 0 1-.63 1.77z" fill="#ffdd30"/></svg><svg width="12" height="9" viewBox="-2 -2 12 9" id="select-arrow" y="2528"><title>select-arrow</title><path d="M8 0L4 5.39 0 0h8z" fill="#babab8"/></svg><svg width="12" height="9" viewBox="-2 -2 12 9" id="select-arrow-yellow" y="2537"><title>select-arrow</title><path d="M8 0L4 5.39 0 0h8z" fill="#ffdd30"/></svg><svg width="15" height="27" viewBox="-2 -2 15 27" id="social-fb" y="2546"><title>social-fb</title><path d="M2.33 4.42v3.15H-.01v3.85h2.34v11.43h4.76V11.41h3.2s.29-1.85.44-3.86H7.11V4.92a1.12 1.12 0 0 1 1-.92h2.6V-.02h-3.5c-5 0-4.88 3.86-4.88 4.44z" fill="#fff"/></svg><svg width="26" height="26" viewBox="-2 -2 26 26" id="social-ig" y="2573"><title>social-ig</title><path d="M13.8 10.99A2.73 2.73 0 1 1 11 8.25a2.72 2.72 0 0 1 2.8 2.74zm-2.73-4.54a4.54 4.54 0 0 1 3.63 1.82h7.4V2.52a2.39 2.39 0 0 0-2.25-2.53H2.71A2.68 2.68 0 0 0 0 2.52v5.75h7.44a4.54 4.54 0 0 1 3.63-1.81zm7.77-1.06a.36.36 0 0 1-.36.36h-1.82a.36.36 0 0 1-.36-.36V3.6a.36.36 0 0 1 .36-.35h1.82a.36.36 0 0 1 .36.35v1.8zm-3.23 5.6a4.54 4.54 0 0 1-9.08 0 4.43 4.43 0 0 1 .09-.9H0v9.34a2.68 2.68 0 0 0 2.71 2.52h17a2.39 2.39 0 0 0 2.38-2.4V10.07h-6.57a4.22 4.22 0 0 1 .1.9z" fill="#fff"/></svg><svg width="22" height="27" viewBox="-2 -2 22 27" id="social-pin" y="2599"><title>social-pin</title><path d="M9.4.01C3.16.01.01 4.46.01 8.16c0 2.25.86 4.24 2.7 5a.45.45 0 0 0 .66-.32c.06-.23.2-.81.27-1a.63.63 0 0 0-.2-.83 3.78 3.78 0 0 1-.86-2.56 6.21 6.21 0 0 1 6.14-6.22h.29c3.53 0 5.47 2.14 5.47 5 0 3.77-1.68 6.94-4.17 6.94a2 2 0 0 1-2.08-2.52c.44-1.64 1.2-3.43 1.2-4.64A1.75 1.75 0 0 0 7.9 5.08h-.24c-1.41 0-2.54 1.45-2.54 3.38a5 5 0 0 0 .42 2.07s-1.44 6.05-1.7 7.11a14.76 14.76 0 0 0 0 5 .18.18 0 0 0 .31.07 13.9 13.9 0 0 0 2.38-4.27c.16-.58.92-3.59.92-3.59a3.79 3.79 0 0 0 3.22 1.63c4.22 0 7.09-3.83 7.09-8.95C17.73 3.61 14.43.01 9.4.01z" fill="#fff"/></svg><svg width="32" height="23" viewBox="-2 -2 32 23" id="social-tw" y="2626"><title>social-tw</title><path d="M25.16 8.64a3.45 3.45 0 0 0 3.09-1.83 5.09 5.09 0 0 1-3.35.37c0-.23-.1-.45-.16-.65-.74-2.74-3.32-4.95-6-4.68l.66-.24c.3-.1 2-.39 1.76-1s-2.36.4-2.76.53c.52-.2 1.41-.53 1.5-1.13a4.25 4.25 0 0 0-2.22 1 1.51 1.51 0 0 0 .43-.8c-2.17 1.37-3.43 4.13-4.45 6.8a10.92 10.92 0 0 0-2.15-1.72 55.45 55.45 0 0 0-7.28-3.17c-.1 1.1.55 2.56 2.43 3.54a6.06 6.06 0 0 0-1.75.21c.24 1.27 1 2.3 3.18 2.81a2.61 2.61 0 0 0-1.94.76 3.3 3.3 0 0 0 3.5 1.7c-2.18.93-.89 2.66.88 2.4A7.56 7.56 0 0 1 0 13.82c7.14 9.67 22.68 5.72 25-3.6a4.32 4.32 0 0 0 3.39-1.27 7 7 0 0 1-3.23-.31z" fill="#fff"/></svg><svg width="30" height="22" viewBox="-2 -2 30 22" id="social-yt" y="2649"><title>social-yt</title><path d="M13.06 18.26c-3.21-.15-6.43-.24-9.65-.46a3.22 3.22 0 0 1-3.04-2.78A20.72 20.72 0 0 1 0 11.9c0-2.47.07-4.88.15-7.39a7.59 7.59 0 0 1 .33-1.8A3.25 3.25 0 0 1 3.41.36 142.25 142.25 0 0 1 20.56.18c.77 0 1.54.11 2.31.2a3.31 3.31 0 0 1 2.87 2.74 39.56 39.56 0 0 1 .33 9.1 23.81 23.81 0 0 1-.34 2.8 3.23 3.23 0 0 1-3.07 2.77c-3.19.23-6.4.32-9.6.47zM9.7 4.53v8.58L18 8.84 9.69 4.53z" fill="#fff"/></svg><svg width="138" height="103" viewBox="-2 -2 138 103" id="speech-bubble-fill" y="2671"><title>speech-bubble-fill</title><path d="M134 45.38c0 25.06-30 45.38-67 45.38S0 70.44 0 45.38 30 0 67 0s67 20.31 67 45.38zm-14.77 21.26L132.18 99 90.32 75.15" fill="#737270"/></svg><svg width="135" height="44" viewBox="-2 -2 135 44" id="speech-bubble-outline" y="2774"><title>speech-bubble-outline</title><path d="M119.55.5H11.5a11 11 0 0 0-11 11v9.35a11 11 0 0 0 11 11h98.08l15.24 7.32-2.65-7.65a11 11 0 0 0 8.37-10.67V11.5a11 11 0 0 0-10.99-11z" fill="none" stroke="#6e6d6a"/></svg><svg width="19" height="30" viewBox="-2 -2 19 30" id="triangle-left" y="2818"><title>triangle-left</title><path d="M14.99 26.01l-15-13 15-13v26z" fill="#fff"/></svg><svg width="19" height="30" viewBox="-2 -2 19 30" id="triangle-right" y="2848"><title>triangle-right</title><path d="M0 .01l15.24 13.22L0 26.46V.01z" fill="#fff"/></svg><svg width="15" height="15" viewBox="-2 -2 15 15" id="x-cart-drawer" y="2878"><title>x-cart-drawer</title><path d="M10.71.29a1 1 0 0 1 0 1.42L6.92 5.5 5.5 4.08 9.29.29a1 1 0 0 1 1.42 0zM10.71 9.29a1 1 0 0 1 0 1.42 1 1 0 0 1-1.42 0L5.5 6.92 6.92 5.5z" fill="#969693"/><path fill="#969693" d="M4.084 5.5l1.42-1.42L6.928 5.5 5.505 6.92zM5.5 4.08L4.08 5.5.29 1.71A1.004 1.004 0 0 1 1.71.29zM5.5 6.92l-3.79 3.79A1 1 0 0 1 1 11a1 1 0 0 1-1-1 1 1 0 0 1 .29-.71L4.08 5.5z"/></svg><svg width="18" height="18" viewBox="-2 -2 18 18" id="x-cart-page" y="2893"><title>x-cart-page</title><path d="M1.2 14.37a1.2 1.2 0 0 1-.85-2l12-12A1.2 1.2 0 0 1 14 2.05l-12 12a1.2 1.2 0 0 1-.8.32zm12 0a1.2 1.2 0 0 1-.88-.37L.32 2A1.2 1.2 0 1 1 2.05.35l12 12a1.2 1.2 0 0 1-.88 2.02z" fill="#babab8"/></svg><svg width="11" height="11" viewBox="-2 -2 11 11" id="x-info-box" y="2911"><defs><clipPath id="dda"><path fill="none" d="M0 0h7.35v7.35H0z"/></clipPath></defs><title>x-info-box</title><g clip-path="url(#dda)" fill="none" stroke="#b9b9b7" stroke-linecap="round" stroke-linejoin="round" stroke-width="1.387"><path d="M.69.69l5.96 5.96M6.65.69L.69 6.65"/></g></svg><svg width="15" height="15" viewBox="-2 -2 15 15" id="x-modal" y="2922"><title>x-modal</title><path d="M6.71 5.29L10.3 1.7A1 1 0 0 0 8.88.29L5.29 3.88 1.7.29A1 1 0 0 0 .29 1.71l3.59 3.58L.29 8.88a1 1 0 0 0 1.41 1.41L5.29 6.7l3.59 3.59a1 1 0 0 0 1.41-1.42z" fill="#fff"/></svg><svg width="19" height="19" viewBox="-2 -2 19 19" id="x-quickview" y="2937"><title>x-quickview</title><path d="M13.7 15.08a1.09 1.09 0 0 1-.9-.4L.4 2.18A1.273 1.273 0 0 1 2.2.38l12.5 12.5a1.27 1.27 0 0 1 0 1.8 1.28 1.28 0 0 1-1 .4z" fill="#5d5c58"/><path d="M14.6.48a1.27 1.27 0 0 1 0 1.8L2.1 14.68a1 1 0 0 1-.9.4 1.31 1.31 0 0 1-1.2-1.3 1.09 1.09 0 0 1 .4-.9L12.9.48a1.15 1.15 0 0 1 1.7 0z" fill="#5d5c58"/></svg></svg>